<?xml version="1.0" encoding="UTF-8" standalone="no"?>
<!DOCTYPE svg PUBLIC "-//W3C//DTD SVG 1.1//EN" "http://www.w3.org/Graphics/SVG/1.1/DTD/svg11.dtd">
<svg xmlns="http://www.w3.org/2000/svg" version="1.1" viewBox="0.00 0.00 1024.00 1024.00">
<g stroke-width="2.00" fill="none" stroke-linecap="butt">
<path stroke="#e3e3de" vector-effect="non-scaling-stroke" d="
  M 99.09 756.94
  Q 98.77 779.54 98.98 786.25
  Q 99.22 793.75 106.08 797.14
  Q 112.63 800.38 118.60 800.00
  C 121.64 799.81 123.65 797.77 124.64 795.05
  Q 126.04 791.21 129.64 790.04
  Q 135.72 788.05 141.17 785.07
  C 144.06 783.50 143.73 776.38 143.48 773.42
  Q 143.44 772.95 143.11 772.61
  L 141.99 771.46
  A 0.44 0.44 0.0 0 1 142.18 770.74
  Q 142.40 770.67 142.77 770.69"
/>
<path stroke="#899397" vector-effect="non-scaling-stroke" d="
  M 142.77 770.69
  L 262.38 808.74"
/>
<path stroke="#e3e3de" vector-effect="non-scaling-stroke" d="
  M 262.38 808.74
  L 261.31 810.84
  Q 261.12 811.22 261.12 811.64
  Q 261.09 819.92 264.60 826.89
  Q 268.30 834.26 277.37 837.66
  Q 287.41 841.42 296.71 844.09
  Q 308.21 847.38 341.30 858.47
  C 342.65 858.92 343.96 859.11 345.26 859.52
  Q 369.12 867.10 393.63 874.99
  Q 397.80 876.33 401.67 877.58
  Q 439.18 889.71 477.16 901.72
  Q 482.52 903.42 487.56 905.05
  Q 519.99 915.49 565.74 930.41
  Q 574.35 933.22 583.35 936.07
  A 0.91 0.91 0.0 0 1 583.68 937.61
  C 578.16 942.58 575.99 950.76 584.08 954.38
  Q 590.70 957.35 605.08 961.86
  C 612.45 964.18 619.90 960.53 625.42 955.66
  C 630.58 951.11 635.25 945.93 641.75 943.00
  Q 655.47 936.83 668.11 926.71
  C 670.96 924.43 674.20 922.61 677.17 920.42
  Q 688.24 912.23 699.78 904.17
  C 705.15 900.42 710.42 896.38 715.93 892.68
  Q 722.86 888.03 728.11 884.24
  Q 738.99 876.40 749.74 868.76
  Q 779.90 847.33 810.13 825.99
  C 815.65 822.10 821.24 817.83 826.75 814.08
  C 835.98 807.81 844.92 801.16 854.57 794.96
  C 860.23 791.33 861.50 787.88 859.75 781.23
  Q 859.53 780.37 860.21 779.82
  Q 865.10 775.90 870.57 777.45
  A 1.50 1.48 77.1 0 1 871.28 777.90
  Q 871.92 778.65 872.71 779.21
  Q 873.25 779.59 874.08 779.61
  Q 878.73 779.72 883.20 779.56
  Q 885.57 779.48 888.56 778.40
  Q 890.16 777.83 891.95 777.93
  Q 893.76 778.04 895.56 777.87
  Q 896.04 777.82 895.87 778.28
  Q 895.79 778.50 896.43 778.34
  A 0.58 0.57 -7.5 0 0 896.87 777.77
  L 896.62 736.98"
/>
<path stroke="#899397" vector-effect="non-scaling-stroke" d="
  M 896.62 736.98
  Q 900.10 734.48 904.75 731.47
  C 911.69 726.95 915.83 722.12 915.83 713.48
  Q 915.85 694.02 915.96 675.38
  C 916.02 664.36 907.44 657.75 897.70 655.58
  A 1.54 1.54 0.0 0 1 896.50 654.08
  Q 896.56 566.52 896.59 471.79
  Q 896.60 462.36 895.63 457.96
  Q 894.12 451.06 889.87 445.09
  C 881.65 433.54 869.41 430.27 855.59 430.20
  A 0.74 0.74 0.0 0 1 854.86 429.46
  Q 854.72 378.40 855.01 327.29
  C 855.07 316.23 854.21 307.76 849.13 298.86
  Q 841.23 285.01 825.64 280.42
  Q 790.20 269.99 751.22 258.11
  Q 750.40 257.86 750.43 256.99
  C 750.78 248.45 750.54 239.18 741.54 235.40
  C 736.86 233.44 731.21 233.84 727.39 236.93
  C 723.73 239.89 723.42 244.13 722.74 248.53
  Q 722.64 249.15 722.04 248.96
  L 624.24 219.04
  A 1.09 1.08 10.0 0 1 623.47 217.95
  C 623.98 208.27 623.96 197.19 612.01 194.72
  Q 606.61 193.60 602.00 196.33
  C 597.59 198.94 595.92 204.09 595.79 209.48
  Q 595.77 210.26 595.03 210.02
  Q 589.20 208.11 583.24 206.28
  Q 522.11 187.50 460.99 168.73
  Q 448.42 164.86 434.96 161.01
  A 0.63 0.61 -83.6 0 1 434.52 160.44
  C 434.36 156.37 434.98 151.79 433.87 148.04
  Q 430.79 137.56 419.25 137.56
  Q 413.95 137.56 409.94 141.76
  C 407.40 144.43 406.95 149.04 406.67 152.56
  A 0.43 0.42 -78.5 0 1 406.12 152.93
  L 387.70 147.24
  Q 387.12 147.06 387.10 146.45
  C 386.91 137.81 388.25 127.32 377.97 123.71
  C 371.24 121.35 363.48 124.16 360.79 130.82
  Q 359.64 133.68 359.67 138.53
  Q 359.80 160.37 359.69 180.54
  Q 359.66 186.11 360.35 191.83
  Q 360.97 197.00 361.83 202.49
  Q 361.84 202.55 361.78 202.56
  L 361.51 202.62
  Q 361.14 202.71 361.03 202.34
  C 350.33 167.25 307.65 163.24 280.48 180.29
  C 259.33 193.57 245.33 215.59 236.64 238.61
  Q 227.28 263.42 224.34 289.75
  Q 223.50 297.34 223.51 305.44
  Q 223.56 327.56 223.41 350.68
  Q 223.32 366.09 220.03 380.76
  Q 215.89 399.26 211.54 418.08
  Q 209.17 428.30 208.24 438.50
  Q 208.11 439.87 207.01 440.62
  Q 165.97 468.54 124.86 496.46
  Q 105.38 509.68 101.33 531.30
  Q 100.12 537.71 100.16 550.56
  Q 100.33 607.37 100.21 664.32
  A 1.96 1.94 -14.7 0 1 99.21 666.02
  C 93.81 669.02 87.16 672.32 82.80 675.92
  C 78.13 679.77 77.13 685.39 77.18 691.75
  Q 77.35 712.68 77.16 733.03
  C 77.06 744.19 82.92 751.15 92.99 754.76
  Q 96.33 755.95 99.09 756.94"
/>
<path stroke="#7a8388" vector-effect="non-scaling-stroke" d="
  M 896.62 736.98
  Q 892.55 739.46 887.20 743.22
  Q 772.42 823.92 655.15 907.63
  C 650.80 910.73 646.54 913.97 641.71 916.25
  Q 632.33 920.69 619.50 920.03
  Q 611.32 919.61 598.90 915.62
  Q 517.69 889.54 262.38 808.74"
/>
<path stroke="#7a8388" vector-effect="non-scaling-stroke" d="
  M 142.77 770.69
  L 99.09 756.94"
/>
<path stroke="#899397" vector-effect="non-scaling-stroke" d="
  M 387.03 173.55
  A 0.13 0.12 -81.4 0 0 386.87 173.67
  C 386.66 183.91 386.53 194.49 388.02 204.68
  Q 388.91 210.78 389.61 217.28
  C 389.78 218.81 389.56 220.27 389.64 221.78
  Q 389.68 222.63 390.38 222.14
  Q 401.41 214.42 414.92 214.35
  Q 415.48 214.35 415.17 213.89
  Q 409.40 205.19 407.74 195.06
  C 406.97 190.34 407.25 185.27 407.25 180.42
  Q 407.26 179.85 406.71 179.68
  L 387.03 173.55"
/>
<path stroke="#899397" vector-effect="non-scaling-stroke" d="
  M 577.91 273.71
  C 578.47 278.44 577.19 283.14 573.25 285.89
  C 568.96 288.89 564.33 291.24 560.36 294.83
  Q 548.67 305.35 539.97 320.05
  A 0.40 0.40 0.0 0 0 540.20 320.64
  L 559.46 326.22
  A 0.78 0.77 -68.6 0 0 560.37 325.82
  C 570.79 305.02 586.36 284.67 607.78 275.56
  A 0.41 0.41 0.0 0 0 607.93 274.91
  Q 596.18 261.40 595.94 243.29
  Q 595.90 240.18 595.96 237.14
  Q 595.97 236.51 595.37 236.33
  Q 516.84 212.07 439.28 188.40
  Q 437.17 187.76 434.99 187.25
  Q 434.43 187.11 434.39 187.70
  Q 434.08 192.53 434.43 197.20
  C 434.76 201.64 436.75 204.49 439.39 207.80
  C 443.51 213.00 448.37 217.14 452.88 221.74
  Q 457.23 226.17 458.00 232.04
  Q 458.09 232.68 458.70 232.46
  Q 461.28 231.52 463.78 230.61
  Q 480.03 224.72 496.96 228.57
  Q 512.46 232.09 522.03 245.19
  A 0.80 0.80 0.0 0 0 522.89 245.48
  C 536.10 241.80 553.22 241.86 564.42 250.07
  C 572.17 255.76 576.79 264.19 577.91 273.71"
/>
<path stroke="#899397" vector-effect="non-scaling-stroke" d="
  M 267.60 235.01
  Q 254.72 262.10 252.13 290.83
  Q 251.32 299.88 251.43 311.22
  Q 251.66 334.53 251.20 352.94
  C 250.88 365.77 248.46 377.65 245.64 389.97
  Q 245.50 390.61 246.14 390.69
  C 259.06 392.21 272.30 395.18 284.15 399.86
  Q 307.49 409.07 320.54 428.64
  C 327.71 439.40 332.57 453.92 332.92 467.00
  Q 333.12 474.73 332.82 482.55
  A 0.36 0.36 0.0 0 0 333.39 482.85
  Q 337.96 479.34 343.08 476.88
  A 2.12 2.12 0.0 0 0 344.28 474.97
  L 344.25 396.99
  A 0.64 0.63 7.9 0 0 343.78 396.38
  Q 331.55 393.15 320.29 389.98
  C 313.55 388.08 306.17 386.49 299.00 384.65
  C 290.94 382.58 287.30 379.65 283.51 372.37
  Q 283.19 371.74 282.48 371.76
  C 274.38 371.92 264.14 369.86 263.47 359.74
  Q 263.01 352.75 268.04 348.89
  C 271.64 346.14 278.16 347.76 282.18 349.00
  A 0.64 0.64 0.0 0 0 283.00 348.36
  Q 282.58 338.05 283.10 326.42
  Q 283.13 325.81 282.51 325.75
  C 275.63 325.14 266.44 324.35 264.40 316.02
  C 262.74 309.27 266.22 300.15 274.45 301.07
  Q 279.33 301.62 283.82 303.02
  A 0.79 0.78 -77.6 0 0 284.83 302.37
  Q 286.88 286.37 291.50 270.68
  Q 291.93 269.22 290.41 269.14
  Q 286.70 268.93 283.08 267.83
  C 275.37 265.47 274.68 256.34 277.93 250.42
  Q 281.53 243.86 287.95 245.08
  Q 293.01 246.03 298.44 247.91
  Q 299.09 248.14 299.38 247.52
  C 307.42 230.41 318.52 214.76 335.35 205.24
  Q 335.78 205.00 335.48 204.62
  C 329.09 196.55 320.29 192.75 310.20 194.54
  C 290.52 198.03 275.71 217.95 267.60 235.01"
/>
<path stroke="#899397" vector-effect="non-scaling-stroke" d="
  M 125.37 690.19
  Q 258.24 731.35 394.99 774.21
  Q 509.06 809.96 605.62 840.53
  Q 613.61 843.06 621.54 845.55
  Q 622.21 845.76 622.21 845.06
  Q 621.84 784.42 622.03 723.25
  C 622.05 714.82 621.76 706.19 623.24 698.34
  C 626.03 683.48 632.02 668.78 638.83 655.80
  Q 642.50 648.82 647.41 643.28
  Q 648.90 641.60 648.98 639.80
  Q 649.36 631.48 649.04 622.08
  Q 649.01 621.44 648.39 621.30
  Q 643.67 620.23 639.37 620.28
  C 632.49 620.35 625.49 625.24 619.91 629.21
  Q 609.37 636.72 599.85 646.45
  C 595.46 650.94 591.09 656.90 590.77 663.17
  C 590.58 667.00 591.31 671.39 589.96 674.94
  Q 587.04 682.65 579.24 683.37
  C 573.38 683.91 568.91 680.12 567.88 674.72
  Q 563.61 652.37 576.88 634.36
  A 0.56 0.56 0.0 0 0 576.59 633.50
  Q 566.95 630.59 557.50 628.10
  C 549.16 625.90 545.59 615.88 550.63 608.97
  C 552.81 605.99 557.43 604.02 561.10 604.25
  Q 564.87 604.49 569.03 605.63
  Q 582.28 609.23 592.08 613.10
  Q 594.14 613.92 595.68 615.54
  A 1.63 1.62 51.2 0 0 597.77 615.77
  Q 608.11 608.77 617.04 603.26
  Q 620.72 600.99 625.25 599.06
  A 0.34 0.34 0.0 0 0 625.23 598.43
  Q 622.52 597.47 620.32 596.12
  C 611.72 590.87 613.03 582.62 613.31 573.97
  Q 613.33 573.33 612.70 573.17
  Q 596.48 569.04 579.40 563.40
  A 0.69 0.69 0.0 0 0 578.50 564.08
  C 578.89 574.29 574.83 584.46 566.92 591.08
  Q 563.53 593.92 560.12 596.13
  Q 547.99 603.97 535.42 612.41
  Q 531.22 615.22 528.17 615.87
  C 519.98 617.60 513.05 611.57 512.66 603.30
  C 512.43 598.36 514.94 594.96 518.79 592.39
  Q 531.74 583.73 546.67 573.87
  C 548.93 572.37 551.19 570.52 551.95 567.81
  Q 553.31 562.95 553.28 557.26
  A 0.69 0.69 0.0 0 0 552.78 556.61
  L 540.78 553.32
  A 5.69 5.68 38.7 0 0 536.64 553.77
  Q 531.75 556.35 527.13 559.38
  Q 503.07 575.16 482.59 588.84
  C 478.95 591.28 474.09 594.48 469.74 594.62
  C 457.53 595.04 452.62 578.93 461.98 571.78
  C 467.06 567.91 472.83 564.60 478.25 561.00
  Q 501.75 545.36 525.08 530.10
  Q 525.82 529.61 525.83 528.72
  L 526.01 508.85
  Q 526.02 508.02 525.20 507.86
  Q 516.08 506.04 508.20 503.59
  Q 503.43 502.11 501.74 497.33
  C 498.59 488.36 503.95 478.64 514.37 480.25
  Q 519.55 481.04 525.06 483.02
  Q 525.64 483.22 525.67 482.61
  Q 525.88 477.68 525.68 473.12
  Q 525.62 471.54 524.27 470.70
  Q 517.82 466.65 512.25 461.78
  C 500.50 451.51 493.65 436.77 491.86 421.43
  Q 490.65 411.14 491.16 397.93
  C 491.45 390.25 493.19 383.44 500.96 380.31
  C 506.72 377.99 514.52 379.67 518.50 384.39
  C 521.62 388.10 522.49 392.50 522.21 397.83
  C 521.54 410.84 521.67 423.40 525.63 435.72
  C 529.48 447.70 535.40 456.95 544.84 464.51
  C 547.85 466.92 549.53 470.11 549.65 473.93
  Q 549.86 481.19 549.71 488.74
  A 0.62 0.62 0.0 0 0 550.16 489.35
  L 563.57 493.21
  A 0.68 0.67 10.3 0 0 564.43 492.62
  Q 564.75 488.80 564.87 484.55
  Q 564.93 482.85 563.62 481.91
  Q 557.06 477.23 553.25 471.51
  Q 544.60 458.51 542.70 440.67
  Q 537.93 395.87 551.43 349.97
  A 0.88 0.87 -73.9 0 0 550.83 348.88
  L 531.68 343.31
  A 0.72 0.72 0.0 0 0 530.79 343.77
  C 528.47 350.78 526.28 359.57 519.21 363.11
  C 513.07 366.17 505.62 364.78 501.14 359.49
  Q 495.98 353.41 498.59 344.63
  C 504.73 323.99 513.66 304.17 527.66 287.43
  Q 537.05 276.21 549.34 269.18
  Q 549.69 268.99 549.34 268.79
  Q 546.61 267.23 543.54 266.89
  C 524.51 264.78 507.95 285.16 500.12 299.99
  Q 495.52 308.73 491.63 318.37
  Q 489.53 323.58 485.48 326.40
  C 477.78 331.77 466.63 327.37 463.74 318.81
  C 462.09 313.91 464.35 307.89 466.41 303.33
  Q 471.03 293.10 477.11 283.03
  C 483.10 273.12 490.39 265.31 498.72 258.09
  Q 499.21 257.67 498.71 257.25
  C 484.21 245.19 467.71 252.98 456.49 264.59
  C 442.39 279.17 433.84 297.12 428.78 316.75
  Q 422.57 340.85 421.60 367.61
  C 420.80 389.64 420.77 413.03 429.51 433.56
  C 431.85 439.05 432.33 443.42 432.38 449.24
  Q 432.44 457.60 431.75 460.01
  Q 430.10 465.83 428.53 471.25
  C 425.93 480.20 426.45 491.78 426.66 501.63
  C 426.90 513.01 420.51 526.93 414.24 535.59
  C 408.96 542.90 399.61 549.12 390.40 545.77
  Q 385.84 544.12 381.12 542.49
  Q 377.57 541.27 373.76 543.85
  Q 361.61 552.11 351.95 558.25
  C 341.71 564.75 330.52 558.84 331.13 546.68
  Q 331.45 540.42 337.15 536.74
  Q 352.63 526.77 367.79 517.05
  C 376.21 511.66 383.31 514.42 390.92 518.99
  A 0.95 0.94 -46.0 0 0 391.93 518.97
  C 398.43 514.64 401.61 505.97 402.78 498.53
  C 403.57 493.56 398.69 489.50 397.64 484.75
  Q 397.14 482.50 397.09 480.00
  Q 396.89 470.16 397.12 460.53
  C 397.29 453.34 401.59 448.28 409.22 448.94
  Q 409.81 448.99 409.96 448.40
  C 410.58 445.88 411.33 441.91 409.23 439.84
  Q 401.19 431.90 397.81 420.29
  C 395.38 411.94 394.25 402.62 393.87 393.91
  Q 392.58 364.43 396.67 336.14
  C 398.43 323.97 401.25 312.57 404.85 301.02
  A 0.62 0.62 0.0 0 0 404.33 300.22
  Q 401.48 299.86 398.71 299.37
  C 384.73 296.89 388.23 274.14 401.64 276.25
  Q 407.18 277.13 412.08 279.26
  Q 413.01 279.66 413.44 278.75
  C 419.90 265.32 429.11 253.54 440.36 243.57
  A 0.51 0.51 0.0 0 0 440.38 242.83
  Q 430.00 232.70 416.18 236.93
  C 401.76 241.34 391.15 254.70 384.15 267.87
  Q 375.91 283.38 372.52 300.50
  Q 369.45 316.05 369.11 334.28
  C 368.97 341.77 366.92 348.42 359.18 350.86
  C 350.32 353.66 342.76 348.54 339.85 340.21
  Q 339.58 339.46 338.79 339.50
  C 330.62 339.91 321.52 337.59 320.87 327.70
  Q 320.48 321.72 324.64 317.72
  C 328.56 313.95 336.85 316.24 341.11 318.04
  Q 341.73 318.30 341.79 317.63
  Q 343.37 301.51 347.35 286.39
  Q 347.62 285.37 346.56 285.26
  C 339.57 284.56 332.91 282.83 332.00 274.53
  Q 331.18 267.05 336.97 262.48
  Q 339.92 260.15 343.72 260.92
  Q 349.46 262.07 354.21 263.84
  A 0.89 0.89 0.0 0 0 355.34 263.36
  Q 363.48 244.79 378.42 230.30
  A 0.43 0.42 -46.3 0 0 378.41 229.68
  C 369.56 221.73 357.82 220.97 348.11 227.45
  C 336.33 235.31 328.08 249.80 323.17 262.79
  Q 312.22 291.80 310.91 323.34
  Q 310.15 341.47 310.97 359.73
  A 0.95 0.94 6.3 0 0 311.67 360.60
  Q 325.89 364.41 339.32 368.14
  C 343.29 369.25 346.86 367.58 350.89 367.69
  Q 361.45 368.00 367.24 376.31
  C 369.64 379.76 371.17 384.95 371.14 389.13
  Q 370.91 430.75 371.07 473.24
  Q 371.11 484.01 363.35 493.00
  Q 360.78 495.97 354.44 499.57
  Q 345.91 504.41 336.08 510.87
  Q 315.02 524.69 298.54 535.67
  C 292.58 539.64 284.50 542.80 278.72 536.20
  C 274.94 531.88 273.71 524.26 277.24 519.71
  Q 279.25 517.14 282.80 514.87
  Q 298.60 504.81 311.82 495.94
  A 2.91 2.90 73.8 0 0 313.11 493.58
  C 313.33 483.16 313.87 471.24 311.67 461.42
  C 307.62 443.30 295.31 427.35 277.62 420.51
  C 264.73 415.53 243.58 411.12 236.61 426.70
  Q 233.92 432.70 232.97 438.39
  A 0.87 0.87 0.0 0 0 233.59 439.37
  L 258.38 446.25
  Q 258.91 446.40 259.15 445.91
  Q 261.85 440.43 268.26 439.39
  C 277.46 437.90 285.52 445.56 285.56 454.95
  Q 285.61 465.29 285.50 476.58
  Q 285.36 491.58 273.66 499.61
  Q 259.09 509.61 240.77 521.45
  Q 232.70 526.66 226.16 523.00
  Q 222.30 520.83 220.72 516.23
  C 218.74 510.41 220.43 504.48 225.65 500.99
  Q 240.81 490.84 256.78 480.20
  C 259.03 478.70 258.89 475.01 258.51 472.55
  Q 258.43 472.04 257.92 472.00
  Q 256.70 471.90 255.51 471.55
  Q 238.04 466.43 220.46 461.61
  A 1.08 1.08 0.0 0 0 219.57 461.76
  L 132.38 520.58
  A 0.43 0.43 0.0 0 0 132.50 521.35
  Q 199.79 541.25 252.32 557.34
  Q 304.06 573.18 355.81 589.04
  Q 436.92 613.90 520.71 639.56
  Q 529.94 642.39 538.04 644.49
  C 545.39 646.39 550.61 648.90 552.38 656.93
  Q 553.58 662.38 549.78 667.04
  Q 544.85 673.09 536.98 670.72
  Q 427.42 637.74 302.24 599.30
  Q 215.14 572.54 125.41 545.72
  A 0.47 0.46 8.4 0 0 124.81 546.16
  L 124.78 689.37
  A 0.87 0.85 -81.2 0 0 125.37 690.19"
/>
<path stroke="#899397" vector-effect="non-scaling-stroke" d="
  M 608.47 521.55
  C 609.32 516.21 612.94 512.64 618.25 511.55
  A 0.99 0.97 -89.9 0 0 619.01 510.78
  C 619.53 508.23 620.33 502.85 617.73 501.20
  C 605.55 493.46 597.87 480.86 595.04 467.00
  C 591.77 450.99 591.98 433.41 593.83 416.64
  Q 595.91 397.65 602.01 379.09
  Q 605.16 369.51 608.36 363.00
  Q 611.31 357.03 616.26 354.59
  C 623.54 351.00 633.09 354.60 636.27 361.95
  C 637.97 365.86 637.77 369.35 636.00 373.24
  C 622.82 402.05 618.10 433.56 622.86 463.95
  Q 624.28 473.02 628.78 482.21
  C 631.33 487.43 635.43 491.49 639.58 495.48
  Q 642.03 497.83 642.40 501.48
  Q 643.71 514.33 641.54 523.47
  C 639.87 530.51 639.29 537.21 639.25 544.37
  Q 639.16 558.17 639.31 572.50
  A 1.22 1.21 6.9 0 0 640.23 573.66
  L 647.97 575.57
  Q 649.03 575.83 649.03 574.74
  Q 648.93 528.33 648.96 484.45
  C 648.96 477.87 648.60 471.46 650.11 465.28
  C 653.48 451.44 663.52 443.36 675.81 437.41
  Q 677.10 436.79 677.50 435.33
  Q 681.94 419.20 690.27 404.79
  C 699.58 388.68 713.24 378.26 732.94 383.15
  Q 741.95 385.39 767.39 392.62
  Q 779.90 396.18 783.77 398.69
  Q 792.88 404.61 795.77 414.83
  Q 797.57 421.20 797.31 433.29
  Q 796.98 448.07 797.18 465.36
  Q 797.20 466.98 798.54 466.06
  L 830.10 444.48
  A 2.81 2.78 72.9 0 0 831.31 442.17
  Q 831.09 382.47 831.20 324.14
  Q 831.23 313.58 823.86 307.63
  Q 820.49 304.91 812.65 302.65
  Q 782.90 294.05 750.95 284.08
  A 0.62 0.61 -81.6 0 0 750.16 284.67
  C 750.16 291.83 748.92 299.42 754.11 305.35
  C 758.41 310.27 764.54 315.48 766.96 321.46
  C 769.09 326.71 768.45 333.23 763.71 336.75
  C 760.28 339.31 756.24 339.32 752.69 336.97
  Q 741.74 329.76 727.39 333.62
  C 711.02 338.02 697.07 351.22 688.01 365.51
  Q 680.30 377.68 675.59 393.52
  Q 673.68 399.96 671.95 406.54
  Q 669.42 416.14 661.34 418.37
  C 653.86 420.42 646.19 416.56 643.71 409.15
  C 642.34 405.04 643.35 401.04 644.42 397.04
  Q 647.48 385.58 652.09 374.35
  Q 661.95 350.33 681.26 331.96
  C 694.21 319.63 710.24 310.46 728.24 310.47
  Q 729.09 310.47 728.71 309.70
  Q 723.44 299.04 723.29 287.75
  Q 723.21 281.76 723.18 275.78
  Q 723.18 275.69 723.10 275.67
  L 623.97 245.04
  Q 623.36 244.85 623.31 245.49
  C 623.09 248.50 622.48 253.55 624.74 255.96
  Q 629.74 261.30 635.82 266.67
  Q 638.41 268.97 641.57 269.60
  C 649.87 271.25 657.46 274.40 663.72 280.29
  Q 672.86 288.89 677.05 300.12
  Q 680.22 308.60 673.88 314.83
  Q 663.53 325.00 652.62 336.66
  C 648.25 341.34 642.48 344.70 635.88 342.31
  Q 626.93 339.06 625.72 329.72
  C 625.04 324.53 628.44 319.92 631.96 316.40
  Q 639.25 309.12 646.67 301.90
  Q 647.24 301.34 647.79 300.69
  Q 648.60 299.74 647.69 298.89
  C 637.45 289.31 623.31 292.75 613.50 300.55
  Q 599.50 311.70 590.19 329.08
  C 573.47 360.27 567.43 398.51 570.44 434.13
  Q 571.82 450.48 577.41 463.27
  Q 579.97 469.13 584.90 473.54
  C 586.41 474.89 587.88 476.88 587.97 478.98
  Q 588.26 486.38 588.29 494.81
  Q 588.32 501.31 587.56 505.05
  C 586.11 512.14 578.55 517.69 571.77 519.12
  C 565.67 520.40 556.39 516.80 550.25 514.71
  A 0.36 0.35 9.5 0 0 549.78 515.04
  L 549.77 528.72
  Q 549.77 529.46 550.47 529.66
  Q 578.61 537.63 607.68 545.62
  Q 609.87 546.22 612.43 546.78
  Q 613.07 546.92 613.09 546.26
  C 613.19 542.64 613.53 538.22 611.30 535.24
  Q 607.18 529.75 608.47 521.55"
/>
<path stroke="#899397" vector-effect="non-scaling-stroke" d="
  M 730.83 591.79
  C 712.92 597.97 692.01 589.24 687.87 569.76
  Q 686.84 564.92 686.93 558.09
  Q 687.02 549.95 687.38 546.33
  Q 688.80 532.09 702.15 524.30
  C 705.17 522.54 709.27 521.53 712.72 520.58
  C 717.04 519.38 720.47 517.42 724.11 514.92
  Q 747.48 498.89 771.58 482.27
  A 2.18 2.18 0.0 0 0 772.53 480.47
  Q 772.45 455.90 772.57 430.41
  C 772.62 418.86 762.42 415.15 752.93 418.70
  Q 749.46 419.99 744.98 422.47
  Q 710.46 441.53 685.85 458.60
  C 679.11 463.27 674.91 468.13 674.39 476.44
  Q 674.00 482.86 674.00 492.49
  C 674.00 548.46 673.83 605.72 674.27 663.21
  A 0.17 0.17 0.0 0 0 674.54 663.35
  Q 677.90 661.11 681.00 658.96
  Q 726.73 627.21 771.31 596.48
  C 794.75 580.33 817.96 563.86 841.68 547.41
  Q 846.71 543.92 851.81 540.69
  A 1.42 1.41 74.3 0 0 852.47 539.51
  L 852.52 510.24
  A 0.27 0.27 0.0 0 0 852.11 510.01
  Q 849.60 511.52 847.63 512.86
  Q 810.80 537.87 771.33 564.86
  Q 757.44 574.37 744.57 583.68
  Q 735.68 590.12 730.83 591.79"
/>
<path stroke="#899397" vector-effect="non-scaling-stroke" d="
  M 738.20 535.23
  C 731.92 539.48 726.95 543.21 719.26 544.33
  Q 711.31 545.49 710.88 552.78
  Q 710.57 558.06 711.12 563.05
  C 711.63 567.74 717.25 569.77 721.28 569.61
  C 725.94 569.43 730.30 566.34 733.64 563.02
  Q 737.71 558.98 746.30 553.28
  C 780.79 530.37 820.61 502.87 858.13 478.08
  C 861.56 475.81 865.08 473.95 868.57 471.85
  Q 872.79 469.30 871.93 464.04
  C 871.16 459.38 867.76 455.93 862.97 455.73
  C 857.15 455.50 853.02 458.09 848.42 461.16
  Q 791.59 499.19 738.20 535.23"
/>
<path stroke="#899397" vector-effect="non-scaling-stroke" d="
  M 680.95 686.92
  Q 665.51 693.90 654.29 681.49
  Q 653.97 681.13 653.79 681.58
  C 649.57 692.23 646.30 705.09 646.29 716.75
  Q 646.21 785.38 646.22 855.48
  A 0.41 0.41 0.0 0 0 646.87 855.82
  Q 651.40 852.75 655.95 849.46
  Q 703.14 815.40 749.71 783.12
  Q 810.67 740.87 871.70 697.93
  A 2.58 2.57 -17.7 0 0 872.79 695.83
  L 872.81 554.78
  Q 872.81 554.51 872.59 554.65
  Q 866.80 558.27 860.90 562.39
  Q 793.13 609.71 723.79 658.02
  Q 706.12 670.33 689.60 681.80
  Q 684.58 685.29 680.95 686.92"
/>
<path stroke="#899397" vector-effect="non-scaling-stroke" d="
  M 465.69 465.16
  C 464.59 465.41 463.41 465.13 462.29 465.32
  C 455.99 466.38 453.31 471.39 453.10 477.31
  Q 452.77 486.52 452.93 495.53
  C 452.99 498.42 453.36 501.39 454.87 503.92
  C 456.27 506.27 458.46 508.49 458.50 511.35
  C 458.54 513.76 458.51 517.24 456.20 518.70
  C 438.11 530.14 420.96 542.01 402.65 553.34
  C 395.66 557.66 392.94 563.65 396.31 571.61
  C 398.84 577.61 405.41 580.20 411.46 577.82
  C 413.86 576.88 416.33 575.62 418.46 574.18
  Q 441.32 558.74 467.26 542.17
  Q 475.16 537.12 477.65 533.71
  Q 482.37 527.22 482.52 518.51
  Q 482.66 510.21 482.67 501.93
  C 482.67 497.24 483.43 492.63 484.67 488.11
  C 486.11 482.88 488.57 477.17 489.21 471.98
  Q 490.43 462.11 488.86 452.79
  C 488.61 451.33 487.61 448.99 486.87 447.68
  Q 479.87 435.19 478.06 423.90
  Q 473.29 394.07 479.70 360.10
  Q 481.84 348.74 472.63 342.73
  Q 465.17 337.86 457.31 341.87
  Q 455.91 342.59 454.44 343.15
  Q 453.93 343.34 453.41 343.13
  Q 449.82 341.65 446.35 341.02
  C 432.80 338.57 428.16 358.64 439.60 363.86
  Q 443.52 365.65 448.48 365.88
  Q 449.15 365.91 449.07 366.57
  Q 446.81 385.09 447.58 405.37
  Q 448.07 418.37 451.65 430.10
  C 454.34 438.93 459.29 446.81 465.53 453.80
  C 468.15 456.73 466.80 460.93 466.36 464.43
  Q 466.28 465.02 465.69 465.16"
/>
<path stroke="#899397" vector-effect="non-scaling-stroke" d="
  M 169.5143 606.4583
  A 13.78 11.47 38.5 0 0 165.8702 588.9035
  A 13.78 11.47 38.5 0 0 147.9457 589.3017
  A 13.78 11.47 38.5 0 0 151.5898 606.8565
  A 13.78 11.47 38.5 0 0 169.5143 606.4583"
/>
<path stroke="#899397" vector-effect="non-scaling-stroke" d="
  M 195.7929 682.9329
  A 27.64 26.58 91.3 0 0 222.9932 655.9030
  A 27.64 26.58 91.3 0 0 197.0471 627.6671
  A 27.64 26.58 91.3 0 0 169.8468 654.6970
  A 27.64 26.58 91.3 0 0 195.7929 682.9329"
/>
<path stroke="#899397" vector-effect="non-scaling-stroke" d="
  M 315.19 641.93
  C 313.24 647.03 317.34 648.64 321.19 649.94
  Q 329.93 652.91 340.65 656.14
  C 343.40 656.97 345.69 657.50 347.52 654.74
  Q 349.32 652.03 351.15 649.27
  C 355.22 643.12 353.46 638.54 346.31 636.82
  C 338.42 634.92 330.50 631.87 322.33 630.86
  A 2.81 2.80 17.3 0 0 319.50 632.34
  Q 317.10 636.93 315.19 641.93"
/>
<path stroke="#899397" vector-effect="non-scaling-stroke" d="
  M 503.86 682.35
  C 465.25 671.12 426.50 658.84 387.80 647.11
  Q 383.08 645.67 379.00 644.87
  A 2.99 2.96 22.9 0 0 376.01 646.07
  Q 372.40 651.17 369.44 656.58
  Q 365.57 663.66 369.85 667.69
  Q 371.47 669.22 377.47 671.00
  Q 431.55 687.04 492.49 705.66
  C 496.93 707.02 500.67 708.07 503.81 703.75
  Q 506.97 699.41 510.16 694.16
  Q 511.17 692.50 511.43 690.77
  C 512.23 685.60 507.89 683.52 503.86 682.35"
/>
<path stroke="#899397" vector-effect="non-scaling-stroke" d="
  M 283.98 665.13
  Q 279.06 663.58 274.51 662.35
  C 270.21 661.18 265.82 663.79 262.98 666.98
  Q 257.02 673.68 251.17 681.71
  Q 247.88 686.23 249.07 691.44
  C 250.33 696.94 252.48 702.13 258.49 703.87
  Q 270.36 707.30 281.91 711.21
  Q 286.39 712.73 289.08 712.62
  C 293.27 712.46 296.73 709.84 299.26 706.49
  Q 306.36 697.11 312.08 688.37
  Q 315.04 683.84 312.94 678.39
  Q 310.89 673.11 305.18 671.48
  Q 294.00 668.28 283.98 665.13"
/>
<path stroke="#899397" vector-effect="non-scaling-stroke" d="
  M 376.69 707.49
  C 377.65 706.05 378.65 704.02 378.49 702.26
  Q 377.68 693.54 369.30 691.08
  Q 354.84 686.83 339.99 682.20
  Q 332.40 679.84 327.35 685.77
  Q 320.75 693.52 314.45 703.40
  C 312.48 706.49 312.43 709.50 313.39 712.97
  C 314.77 717.97 316.37 721.85 321.97 723.46
  Q 333.74 726.83 344.80 730.50
  C 352.03 732.90 357.83 733.42 362.79 726.97
  Q 369.21 718.62 376.69 707.49"
/>
<path stroke="#899397" vector-effect="non-scaling-stroke" d="
  M 586.58 707.70
  C 570.30 703.13 553.79 697.77 537.19 693.03
  C 533.72 692.04 532.07 693.88 530.49 696.61
  Q 528.44 700.18 526.19 703.83
  C 523.71 707.85 521.91 713.30 526.39 716.51
  Q 527.84 717.54 532.06 718.72
  Q 554.16 724.93 575.99 732.04
  C 578.55 732.88 583.34 734.32 585.09 731.85
  Q 588.72 726.70 591.98 721.34
  C 595.51 715.52 593.42 709.62 586.58 707.70"
/>
<path stroke="#899397" vector-effect="non-scaling-stroke" d="
  M 458.74 718.02
  Q 437.20 711.43 404.45 701.44
  C 400.73 700.30 397.34 700.56 394.40 703.25
  Q 387.21 709.83 380.29 719.96
  C 378.63 722.38 376.87 724.59 376.37 727.50
  Q 375.54 732.29 378.34 738.05
  C 379.59 740.64 381.89 742.29 384.58 743.08
  Q 409.76 750.49 435.69 758.98
  C 441.88 761.01 447.14 757.07 450.73 752.25
  Q 457.55 743.11 463.24 734.75
  Q 466.09 730.56 464.90 725.79
  C 464.05 722.36 462.32 719.11 458.74 718.02"
/>
<path stroke="#899397" vector-effect="non-scaling-stroke" d="
  M 501.3001 735.7782
  A 7.96 6.52 13.5 0 0 495.0821 727.5801
  A 7.96 6.52 13.5 0 0 485.8199 732.0618
  A 7.96 6.52 13.5 0 0 492.0379 740.2599
  A 7.96 6.52 13.5 0 0 501.3001 735.7782"
/>
<path stroke="#899397" vector-effect="non-scaling-stroke" d="
  M 521.33 763.69
  Q 519.21 763.08 520.71 761.46
  Q 524.22 757.66 527.53 753.12
  C 529.01 751.09 529.65 748.99 529.18 746.55
  C 527.47 737.72 517.13 734.30 510.96 741.11
  Q 504.98 747.71 498.95 755.53
  A 2.22 2.21 -62.5 0 1 496.55 756.29
  Q 487.40 753.43 477.20 750.35
  C 472.06 748.80 466.93 749.21 465.04 754.95
  C 464.11 757.78 464.91 761.19 465.79 763.99
  Q 467.46 769.30 472.91 770.98
  Q 517.49 784.72 559.99 797.99
  Q 566.90 800.15 571.91 793.69
  Q 578.24 785.53 585.17 775.85
  Q 589.55 769.73 587.31 763.77
  C 584.82 757.14 577.47 754.89 571.85 759.27
  Q 569.71 760.94 568.51 762.50
  Q 563.86 768.51 559.51 774.07
  A 2.15 2.14 28.2 0 1 557.14 774.78
  Q 539.13 768.81 521.33 763.69"
/>
<path stroke="#899397" vector-effect="non-scaling-stroke" d="
  M 560.5791 754.3145
  A 7.83 6.40 16.2 0 0 554.8455 745.9841
  A 7.83 6.40 16.2 0 0 545.5409 749.9455
  A 7.83 6.40 16.2 0 0 551.2745 758.2759
  A 7.83 6.40 16.2 0 0 560.5791 754.3145"
/>
<path stroke="#899397" vector-effect="non-scaling-stroke" d="
  M 815.94 394.16
  Q 822.29 390.80 822.71 384.23
  Q 823.16 377.22 822.97 370.36
  C 822.85 365.52 817.47 362.99 813.17 364.11
  Q 806.05 365.95 803.97 373.25
  Q 803.23 375.84 803.63 387.48
  C 803.90 395.43 809.22 397.70 815.94 394.16"
/>
<path stroke="#899397" vector-effect="non-scaling-stroke" d="
  M 806.6819 420.2151
  A 12.85 9.13 119.4 0 0 820.9442 413.5020
  A 12.85 9.13 119.4 0 0 819.2981 397.8249
  A 12.85 9.13 119.4 0 0 805.0358 404.5380
  A 12.85 9.13 119.4 0 0 806.6819 420.2151"
/>
<path stroke="#899397" vector-effect="non-scaling-stroke" d="
  M 813.36 449.54
  C 820.63 445.89 824.71 438.41 823.69 430.24
  C 823.13 425.77 818.30 424.13 814.38 424.98
  C 805.74 426.85 802.19 435.22 803.37 443.76
  C 804.09 448.97 808.44 452.02 813.36 449.54"
/>
<path stroke="#899397" vector-effect="non-scaling-stroke" d="
  M 775.29 733.67
  C 780.81 731.93 784.18 726.54 784.19 720.66
  Q 784.27 694.11 784.16 667.16
  Q 784.15 664.38 783.88 661.35
  C 783.20 653.75 774.46 651.72 768.91 655.36
  Q 763.80 658.71 763.72 665.53
  Q 763.42 694.26 763.54 722.97
  Q 763.55 726.15 764.42 728.68
  C 766.03 733.41 770.76 735.11 775.29 733.67"
/>
<path stroke="#899397" vector-effect="non-scaling-stroke" d="
  M 735.06 763.48
  C 739.63 762.52 744.53 757.47 744.55 752.01
  Q 744.65 725.14 744.67 690.42
  C 744.67 685.43 742.83 680.84 737.33 680.11
  C 730.05 679.16 724.58 684.29 724.54 691.58
  Q 724.41 724.08 724.48 754.10
  C 724.50 760.43 728.50 764.87 735.06 763.48"
/>
<path stroke="#899397" vector-effect="non-scaling-stroke" d="
  M 704.49 781.19
  Q 705.73 778.01 705.72 773.89
  Q 705.65 746.49 705.76 719.47
  C 705.77 715.41 704.74 710.85 700.70 709.13
  C 692.67 705.72 685.24 712.10 685.15 720.24
  Q 684.85 746.79 684.98 778.70
  C 685.04 791.69 700.58 791.26 704.49 781.19"
/>
<path stroke="#899397" vector-effect="non-scaling-stroke" d="
  M 279.8864 686.9444
  A 4.80 4.46 135.5 0 0 286.4361 686.7611
  A 4.80 4.46 135.5 0 0 286.7336 680.2156
  A 4.80 4.46 135.5 0 0 280.1839 680.3989
  A 4.80 4.46 135.5 0 0 279.8864 686.9444"
/>
<path stroke="#899397" vector-effect="non-scaling-stroke" d="
  M 352.5924 701.4250
  A 4.87 4.57 -38.1 0 0 345.9401 700.8337
  A 4.87 4.57 -38.1 0 0 344.9276 707.4350
  A 4.87 4.57 -38.1 0 0 351.5799 708.0263
  A 4.87 4.57 -38.1 0 0 352.5924 701.4250"
/>
<path stroke="#899397" vector-effect="non-scaling-stroke" d="
  M 414.0013 715.0255
  A 4.02 3.73 -31.4 0 0 408.6266 713.9363
  A 4.02 3.73 -31.4 0 0 407.1387 719.2145
  A 4.02 3.73 -31.4 0 0 412.5134 720.3037
  A 4.02 3.73 -31.4 0 0 414.0013 715.0255"
/>
<path stroke="#899397" vector-effect="non-scaling-stroke" d="
  M 429.47 722.66
  A 4.11 4.11 0.0 0 0 425.36 718.55
  A 4.11 4.11 0.0 0 0 421.25 722.66
  A 4.11 4.11 0.0 0 0 425.36 726.77
  A 4.11 4.11 0.0 0 0 429.47 722.66"
/>
</g>
<path fill="#f1f2ed" d="
  M 0.00 0.00
  L 1024.00 0.00
  L 1024.00 1024.00
  L 0.00 1024.00
  L 0.00 0.00
  Z
  M 99.09 756.94
  Q 98.77 779.54 98.98 786.25
  Q 99.22 793.75 106.08 797.14
  Q 112.63 800.38 118.60 800.00
  C 121.64 799.81 123.65 797.77 124.64 795.05
  Q 126.04 791.21 129.64 790.04
  Q 135.72 788.05 141.17 785.07
  C 144.06 783.50 143.73 776.38 143.48 773.42
  Q 143.44 772.95 143.11 772.61
  L 141.99 771.46
  A 0.44 0.44 0.0 0 1 142.18 770.74
  Q 142.40 770.67 142.77 770.69
  L 262.38 808.74
  L 261.31 810.84
  Q 261.12 811.22 261.12 811.64
  Q 261.09 819.92 264.60 826.89
  Q 268.30 834.26 277.37 837.66
  Q 287.41 841.42 296.71 844.09
  Q 308.21 847.38 341.30 858.47
  C 342.65 858.92 343.96 859.11 345.26 859.52
  Q 369.12 867.10 393.63 874.99
  Q 397.80 876.33 401.67 877.58
  Q 439.18 889.71 477.16 901.72
  Q 482.52 903.42 487.56 905.05
  Q 519.99 915.49 565.74 930.41
  Q 574.35 933.22 583.35 936.07
  A 0.91 0.91 0.0 0 1 583.68 937.61
  C 578.16 942.58 575.99 950.76 584.08 954.38
  Q 590.70 957.35 605.08 961.86
  C 612.45 964.18 619.90 960.53 625.42 955.66
  C 630.58 951.11 635.25 945.93 641.75 943.00
  Q 655.47 936.83 668.11 926.71
  C 670.96 924.43 674.20 922.61 677.17 920.42
  Q 688.24 912.23 699.78 904.17
  C 705.15 900.42 710.42 896.38 715.93 892.68
  Q 722.86 888.03 728.11 884.24
  Q 738.99 876.40 749.74 868.76
  Q 779.90 847.33 810.13 825.99
  C 815.65 822.10 821.24 817.83 826.75 814.08
  C 835.98 807.81 844.92 801.16 854.57 794.96
  C 860.23 791.33 861.50 787.88 859.75 781.23
  Q 859.53 780.37 860.21 779.82
  Q 865.10 775.90 870.57 777.45
  A 1.50 1.48 77.1 0 1 871.28 777.90
  Q 871.92 778.65 872.71 779.21
  Q 873.25 779.59 874.08 779.61
  Q 878.73 779.72 883.20 779.56
  Q 885.57 779.48 888.56 778.40
  Q 890.16 777.83 891.95 777.93
  Q 893.76 778.04 895.56 777.87
  Q 896.04 777.82 895.87 778.28
  Q 895.79 778.50 896.43 778.34
  A 0.58 0.57 -7.5 0 0 896.87 777.77
  L 896.62 736.98
  Q 900.10 734.48 904.75 731.47
  C 911.69 726.95 915.83 722.12 915.83 713.48
  Q 915.85 694.02 915.96 675.38
  C 916.02 664.36 907.44 657.75 897.70 655.58
  A 1.54 1.54 0.0 0 1 896.50 654.08
  Q 896.56 566.52 896.59 471.79
  Q 896.60 462.36 895.63 457.96
  Q 894.12 451.06 889.87 445.09
  C 881.65 433.54 869.41 430.27 855.59 430.20
  A 0.74 0.74 0.0 0 1 854.86 429.46
  Q 854.72 378.40 855.01 327.29
  C 855.07 316.23 854.21 307.76 849.13 298.86
  Q 841.23 285.01 825.64 280.42
  Q 790.20 269.99 751.22 258.11
  Q 750.40 257.86 750.43 256.99
  C 750.78 248.45 750.54 239.18 741.54 235.40
  C 736.86 233.44 731.21 233.84 727.39 236.93
  C 723.73 239.89 723.42 244.13 722.74 248.53
  Q 722.64 249.15 722.04 248.96
  L 624.24 219.04
  A 1.09 1.08 10.0 0 1 623.47 217.95
  C 623.98 208.27 623.96 197.19 612.01 194.72
  Q 606.61 193.60 602.00 196.33
  C 597.59 198.94 595.92 204.09 595.79 209.48
  Q 595.77 210.26 595.03 210.02
  Q 589.20 208.11 583.24 206.28
  Q 522.11 187.50 460.99 168.73
  Q 448.42 164.86 434.96 161.01
  A 0.63 0.61 -83.6 0 1 434.52 160.44
  C 434.36 156.37 434.98 151.79 433.87 148.04
  Q 430.79 137.56 419.25 137.56
  Q 413.95 137.56 409.94 141.76
  C 407.40 144.43 406.95 149.04 406.67 152.56
  A 0.43 0.42 -78.5 0 1 406.12 152.93
  L 387.70 147.24
  Q 387.12 147.06 387.10 146.45
  C 386.91 137.81 388.25 127.32 377.97 123.71
  C 371.24 121.35 363.48 124.16 360.79 130.82
  Q 359.64 133.68 359.67 138.53
  Q 359.80 160.37 359.69 180.54
  Q 359.66 186.11 360.35 191.83
  Q 360.97 197.00 361.83 202.49
  Q 361.84 202.55 361.78 202.56
  L 361.51 202.62
  Q 361.14 202.71 361.03 202.34
  C 350.33 167.25 307.65 163.24 280.48 180.29
  C 259.33 193.57 245.33 215.59 236.64 238.61
  Q 227.28 263.42 224.34 289.75
  Q 223.50 297.34 223.51 305.44
  Q 223.56 327.56 223.41 350.68
  Q 223.32 366.09 220.03 380.76
  Q 215.89 399.26 211.54 418.08
  Q 209.17 428.30 208.24 438.50
  Q 208.11 439.87 207.01 440.62
  Q 165.97 468.54 124.86 496.46
  Q 105.38 509.68 101.33 531.30
  Q 100.12 537.71 100.16 550.56
  Q 100.33 607.37 100.21 664.32
  A 1.96 1.94 -14.7 0 1 99.21 666.02
  C 93.81 669.02 87.16 672.32 82.80 675.92
  C 78.13 679.77 77.13 685.39 77.18 691.75
  Q 77.35 712.68 77.16 733.03
  C 77.06 744.19 82.92 751.15 92.99 754.76
  Q 96.33 755.95 99.09 756.94
  Z"
/>
<path fill="#203341" d="
  M 896.62 736.98
  Q 892.55 739.46 887.20 743.22
  Q 772.42 823.92 655.15 907.63
  C 650.80 910.73 646.54 913.97 641.71 916.25
  Q 632.33 920.69 619.50 920.03
  Q 611.32 919.61 598.90 915.62
  Q 517.69 889.54 262.38 808.74
  L 142.77 770.69
  L 99.09 756.94
  Q 96.33 755.95 92.99 754.76
  C 82.92 751.15 77.06 744.19 77.16 733.03
  Q 77.35 712.68 77.18 691.75
  C 77.13 685.39 78.13 679.77 82.80 675.92
  C 87.16 672.32 93.81 669.02 99.21 666.02
  A 1.96 1.94 -14.7 0 0 100.21 664.32
  Q 100.33 607.37 100.16 550.56
  Q 100.12 537.71 101.33 531.30
  Q 105.38 509.68 124.86 496.46
  Q 165.97 468.54 207.01 440.62
  Q 208.11 439.87 208.24 438.50
  Q 209.17 428.30 211.54 418.08
  Q 215.89 399.26 220.03 380.76
  Q 223.32 366.09 223.41 350.68
  Q 223.56 327.56 223.51 305.44
  Q 223.50 297.34 224.34 289.75
  Q 227.28 263.42 236.64 238.61
  C 245.33 215.59 259.33 193.57 280.48 180.29
  C 307.65 163.24 350.33 167.25 361.03 202.34
  Q 361.14 202.71 361.51 202.62
  L 361.78 202.56
  Q 361.84 202.55 361.83 202.49
  Q 360.97 197.00 360.35 191.83
  Q 359.66 186.11 359.69 180.54
  Q 359.80 160.37 359.67 138.53
  Q 359.64 133.68 360.79 130.82
  C 363.48 124.16 371.24 121.35 377.97 123.71
  C 388.25 127.32 386.91 137.81 387.10 146.45
  Q 387.12 147.06 387.70 147.24
  L 406.12 152.93
  A 0.43 0.42 -78.5 0 0 406.67 152.56
  C 406.95 149.04 407.40 144.43 409.94 141.76
  Q 413.95 137.56 419.25 137.56
  Q 430.79 137.56 433.87 148.04
  C 434.98 151.79 434.36 156.37 434.52 160.44
  A 0.63 0.61 -83.6 0 0 434.96 161.01
  Q 448.42 164.86 460.99 168.73
  Q 522.11 187.50 583.24 206.28
  Q 589.20 208.11 595.03 210.02
  Q 595.77 210.26 595.79 209.48
  C 595.92 204.09 597.59 198.94 602.00 196.33
  Q 606.61 193.60 612.01 194.72
  C 623.96 197.19 623.98 208.27 623.47 217.95
  A 1.09 1.08 10.0 0 0 624.24 219.04
  L 722.04 248.96
  Q 722.64 249.15 722.74 248.53
  C 723.42 244.13 723.73 239.89 727.39 236.93
  C 731.21 233.84 736.86 233.44 741.54 235.40
  C 750.54 239.18 750.78 248.45 750.43 256.99
  Q 750.40 257.86 751.22 258.11
  Q 790.20 269.99 825.64 280.42
  Q 841.23 285.01 849.13 298.86
  C 854.21 307.76 855.07 316.23 855.01 327.29
  Q 854.72 378.40 854.86 429.46
  A 0.74 0.74 0.0 0 0 855.59 430.20
  C 869.41 430.27 881.65 433.54 889.87 445.09
  Q 894.12 451.06 895.63 457.96
  Q 896.60 462.36 896.59 471.79
  Q 896.56 566.52 896.50 654.08
  A 1.54 1.54 0.0 0 0 897.70 655.58
  C 907.44 657.75 916.02 664.36 915.96 675.38
  Q 915.85 694.02 915.83 713.48
  C 915.83 722.12 911.69 726.95 904.75 731.47
  Q 900.10 734.48 896.62 736.98
  Z
  M 387.03 173.55
  A 0.13 0.12 -81.4 0 0 386.87 173.67
  C 386.66 183.91 386.53 194.49 388.02 204.68
  Q 388.91 210.78 389.61 217.28
  C 389.78 218.81 389.56 220.27 389.64 221.78
  Q 389.68 222.63 390.38 222.14
  Q 401.41 214.42 414.92 214.35
  Q 415.48 214.35 415.17 213.89
  Q 409.40 205.19 407.74 195.06
  C 406.97 190.34 407.25 185.27 407.25 180.42
  Q 407.26 179.85 406.71 179.68
  L 387.03 173.55
  Z
  M 577.91 273.71
  C 578.47 278.44 577.19 283.14 573.25 285.89
  C 568.96 288.89 564.33 291.24 560.36 294.83
  Q 548.67 305.35 539.97 320.05
  A 0.40 0.40 0.0 0 0 540.20 320.64
  L 559.46 326.22
  A 0.78 0.77 -68.6 0 0 560.37 325.82
  C 570.79 305.02 586.36 284.67 607.78 275.56
  A 0.41 0.41 0.0 0 0 607.93 274.91
  Q 596.18 261.40 595.94 243.29
  Q 595.90 240.18 595.96 237.14
  Q 595.97 236.51 595.37 236.33
  Q 516.84 212.07 439.28 188.40
  Q 437.17 187.76 434.99 187.25
  Q 434.43 187.11 434.39 187.70
  Q 434.08 192.53 434.43 197.20
  C 434.76 201.64 436.75 204.49 439.39 207.80
  C 443.51 213.00 448.37 217.14 452.88 221.74
  Q 457.23 226.17 458.00 232.04
  Q 458.09 232.68 458.70 232.46
  Q 461.28 231.52 463.78 230.61
  Q 480.03 224.72 496.96 228.57
  Q 512.46 232.09 522.03 245.19
  A 0.80 0.80 0.0 0 0 522.89 245.48
  C 536.10 241.80 553.22 241.86 564.42 250.07
  C 572.17 255.76 576.79 264.19 577.91 273.71
  Z
  M 267.60 235.01
  Q 254.72 262.10 252.13 290.83
  Q 251.32 299.88 251.43 311.22
  Q 251.66 334.53 251.20 352.94
  C 250.88 365.77 248.46 377.65 245.64 389.97
  Q 245.50 390.61 246.14 390.69
  C 259.06 392.21 272.30 395.18 284.15 399.86
  Q 307.49 409.07 320.54 428.64
  C 327.71 439.40 332.57 453.92 332.92 467.00
  Q 333.12 474.73 332.82 482.55
  A 0.36 0.36 0.0 0 0 333.39 482.85
  Q 337.96 479.34 343.08 476.88
  A 2.12 2.12 0.0 0 0 344.28 474.97
  L 344.25 396.99
  A 0.64 0.63 7.9 0 0 343.78 396.38
  Q 331.55 393.15 320.29 389.98
  C 313.55 388.08 306.17 386.49 299.00 384.65
  C 290.94 382.58 287.30 379.65 283.51 372.37
  Q 283.19 371.74 282.48 371.76
  C 274.38 371.92 264.14 369.86 263.47 359.74
  Q 263.01 352.75 268.04 348.89
  C 271.64 346.14 278.16 347.76 282.18 349.00
  A 0.64 0.64 0.0 0 0 283.00 348.36
  Q 282.58 338.05 283.10 326.42
  Q 283.13 325.81 282.51 325.75
  C 275.63 325.14 266.44 324.35 264.40 316.02
  C 262.74 309.27 266.22 300.15 274.45 301.07
  Q 279.33 301.62 283.82 303.02
  A 0.79 0.78 -77.6 0 0 284.83 302.37
  Q 286.88 286.37 291.50 270.68
  Q 291.93 269.22 290.41 269.14
  Q 286.70 268.93 283.08 267.83
  C 275.37 265.47 274.68 256.34 277.93 250.42
  Q 281.53 243.86 287.95 245.08
  Q 293.01 246.03 298.44 247.91
  Q 299.09 248.14 299.38 247.52
  C 307.42 230.41 318.52 214.76 335.35 205.24
  Q 335.78 205.00 335.48 204.62
  C 329.09 196.55 320.29 192.75 310.20 194.54
  C 290.52 198.03 275.71 217.95 267.60 235.01
  Z
  M 125.37 690.19
  Q 258.24 731.35 394.99 774.21
  Q 509.06 809.96 605.62 840.53
  Q 613.61 843.06 621.54 845.55
  Q 622.21 845.76 622.21 845.06
  Q 621.84 784.42 622.03 723.25
  C 622.05 714.82 621.76 706.19 623.24 698.34
  C 626.03 683.48 632.02 668.78 638.83 655.80
  Q 642.50 648.82 647.41 643.28
  Q 648.90 641.60 648.98 639.80
  Q 649.36 631.48 649.04 622.08
  Q 649.01 621.44 648.39 621.30
  Q 643.67 620.23 639.37 620.28
  C 632.49 620.35 625.49 625.24 619.91 629.21
  Q 609.37 636.72 599.85 646.45
  C 595.46 650.94 591.09 656.90 590.77 663.17
  C 590.58 667.00 591.31 671.39 589.96 674.94
  Q 587.04 682.65 579.24 683.37
  C 573.38 683.91 568.91 680.12 567.88 674.72
  Q 563.61 652.37 576.88 634.36
  A 0.56 0.56 0.0 0 0 576.59 633.50
  Q 566.95 630.59 557.50 628.10
  C 549.16 625.90 545.59 615.88 550.63 608.97
  C 552.81 605.99 557.43 604.02 561.10 604.25
  Q 564.87 604.49 569.03 605.63
  Q 582.28 609.23 592.08 613.10
  Q 594.14 613.92 595.68 615.54
  A 1.63 1.62 51.2 0 0 597.77 615.77
  Q 608.11 608.77 617.04 603.26
  Q 620.72 600.99 625.25 599.06
  A 0.34 0.34 0.0 0 0 625.23 598.43
  Q 622.52 597.47 620.32 596.12
  C 611.72 590.87 613.03 582.62 613.31 573.97
  Q 613.33 573.33 612.70 573.17
  Q 596.48 569.04 579.40 563.40
  A 0.69 0.69 0.0 0 0 578.50 564.08
  C 578.89 574.29 574.83 584.46 566.92 591.08
  Q 563.53 593.92 560.12 596.13
  Q 547.99 603.97 535.42 612.41
  Q 531.22 615.22 528.17 615.87
  C 519.98 617.60 513.05 611.57 512.66 603.30
  C 512.43 598.36 514.94 594.96 518.79 592.39
  Q 531.74 583.73 546.67 573.87
  C 548.93 572.37 551.19 570.52 551.95 567.81
  Q 553.31 562.95 553.28 557.26
  A 0.69 0.69 0.0 0 0 552.78 556.61
  L 540.78 553.32
  A 5.69 5.68 38.7 0 0 536.64 553.77
  Q 531.75 556.35 527.13 559.38
  Q 503.07 575.16 482.59 588.84
  C 478.95 591.28 474.09 594.48 469.74 594.62
  C 457.53 595.04 452.62 578.93 461.98 571.78
  C 467.06 567.91 472.83 564.60 478.25 561.00
  Q 501.75 545.36 525.08 530.10
  Q 525.82 529.61 525.83 528.72
  L 526.01 508.85
  Q 526.02 508.02 525.20 507.86
  Q 516.08 506.04 508.20 503.59
  Q 503.43 502.11 501.74 497.33
  C 498.59 488.36 503.95 478.64 514.37 480.25
  Q 519.55 481.04 525.06 483.02
  Q 525.64 483.22 525.67 482.61
  Q 525.88 477.68 525.68 473.12
  Q 525.62 471.54 524.27 470.70
  Q 517.82 466.65 512.25 461.78
  C 500.50 451.51 493.65 436.77 491.86 421.43
  Q 490.65 411.14 491.16 397.93
  C 491.45 390.25 493.19 383.44 500.96 380.31
  C 506.72 377.99 514.52 379.67 518.50 384.39
  C 521.62 388.10 522.49 392.50 522.21 397.83
  C 521.54 410.84 521.67 423.40 525.63 435.72
  C 529.48 447.70 535.40 456.95 544.84 464.51
  C 547.85 466.92 549.53 470.11 549.65 473.93
  Q 549.86 481.19 549.71 488.74
  A 0.62 0.62 0.0 0 0 550.16 489.35
  L 563.57 493.21
  A 0.68 0.67 10.3 0 0 564.43 492.62
  Q 564.75 488.80 564.87 484.55
  Q 564.93 482.85 563.62 481.91
  Q 557.06 477.23 553.25 471.51
  Q 544.60 458.51 542.70 440.67
  Q 537.93 395.87 551.43 349.97
  A 0.88 0.87 -73.9 0 0 550.83 348.88
  L 531.68 343.31
  A 0.72 0.72 0.0 0 0 530.79 343.77
  C 528.47 350.78 526.28 359.57 519.21 363.11
  C 513.07 366.17 505.62 364.78 501.14 359.49
  Q 495.98 353.41 498.59 344.63
  C 504.73 323.99 513.66 304.17 527.66 287.43
  Q 537.05 276.21 549.34 269.18
  Q 549.69 268.99 549.34 268.79
  Q 546.61 267.23 543.54 266.89
  C 524.51 264.78 507.95 285.16 500.12 299.99
  Q 495.52 308.73 491.63 318.37
  Q 489.53 323.58 485.48 326.40
  C 477.78 331.77 466.63 327.37 463.74 318.81
  C 462.09 313.91 464.35 307.89 466.41 303.33
  Q 471.03 293.10 477.11 283.03
  C 483.10 273.12 490.39 265.31 498.72 258.09
  Q 499.21 257.67 498.71 257.25
  C 484.21 245.19 467.71 252.98 456.49 264.59
  C 442.39 279.17 433.84 297.12 428.78 316.75
  Q 422.57 340.85 421.60 367.61
  C 420.80 389.64 420.77 413.03 429.51 433.56
  C 431.85 439.05 432.33 443.42 432.38 449.24
  Q 432.44 457.60 431.75 460.01
  Q 430.10 465.83 428.53 471.25
  C 425.93 480.20 426.45 491.78 426.66 501.63
  C 426.90 513.01 420.51 526.93 414.24 535.59
  C 408.96 542.90 399.61 549.12 390.40 545.77
  Q 385.84 544.12 381.12 542.49
  Q 377.57 541.27 373.76 543.85
  Q 361.61 552.11 351.95 558.25
  C 341.71 564.75 330.52 558.84 331.13 546.68
  Q 331.45 540.42 337.15 536.74
  Q 352.63 526.77 367.79 517.05
  C 376.21 511.66 383.31 514.42 390.92 518.99
  A 0.95 0.94 -46.0 0 0 391.93 518.97
  C 398.43 514.64 401.61 505.97 402.78 498.53
  C 403.57 493.56 398.69 489.50 397.64 484.75
  Q 397.14 482.50 397.09 480.00
  Q 396.89 470.16 397.12 460.53
  C 397.29 453.34 401.59 448.28 409.22 448.94
  Q 409.81 448.99 409.96 448.40
  C 410.58 445.88 411.33 441.91 409.23 439.84
  Q 401.19 431.90 397.81 420.29
  C 395.38 411.94 394.25 402.62 393.87 393.91
  Q 392.58 364.43 396.67 336.14
  C 398.43 323.97 401.25 312.57 404.85 301.02
  A 0.62 0.62 0.0 0 0 404.33 300.22
  Q 401.48 299.86 398.71 299.37
  C 384.73 296.89 388.23 274.14 401.64 276.25
  Q 407.18 277.13 412.08 279.26
  Q 413.01 279.66 413.44 278.75
  C 419.90 265.32 429.11 253.54 440.36 243.57
  A 0.51 0.51 0.0 0 0 440.38 242.83
  Q 430.00 232.70 416.18 236.93
  C 401.76 241.34 391.15 254.70 384.15 267.87
  Q 375.91 283.38 372.52 300.50
  Q 369.45 316.05 369.11 334.28
  C 368.97 341.77 366.92 348.42 359.18 350.86
  C 350.32 353.66 342.76 348.54 339.85 340.21
  Q 339.58 339.46 338.79 339.50
  C 330.62 339.91 321.52 337.59 320.87 327.70
  Q 320.48 321.72 324.64 317.72
  C 328.56 313.95 336.85 316.24 341.11 318.04
  Q 341.73 318.30 341.79 317.63
  Q 343.37 301.51 347.35 286.39
  Q 347.62 285.37 346.56 285.26
  C 339.57 284.56 332.91 282.83 332.00 274.53
  Q 331.18 267.05 336.97 262.48
  Q 339.92 260.15 343.72 260.92
  Q 349.46 262.07 354.21 263.84
  A 0.89 0.89 0.0 0 0 355.34 263.36
  Q 363.48 244.79 378.42 230.30
  A 0.43 0.42 -46.3 0 0 378.41 229.68
  C 369.56 221.73 357.82 220.97 348.11 227.45
  C 336.33 235.31 328.08 249.80 323.17 262.79
  Q 312.22 291.80 310.91 323.34
  Q 310.15 341.47 310.97 359.73
  A 0.95 0.94 6.3 0 0 311.67 360.60
  Q 325.89 364.41 339.32 368.14
  C 343.29 369.25 346.86 367.58 350.89 367.69
  Q 361.45 368.00 367.24 376.31
  C 369.64 379.76 371.17 384.95 371.14 389.13
  Q 370.91 430.75 371.07 473.24
  Q 371.11 484.01 363.35 493.00
  Q 360.78 495.97 354.44 499.57
  Q 345.91 504.41 336.08 510.87
  Q 315.02 524.69 298.54 535.67
  C 292.58 539.64 284.50 542.80 278.72 536.20
  C 274.94 531.88 273.71 524.26 277.24 519.71
  Q 279.25 517.14 282.80 514.87
  Q 298.60 504.81 311.82 495.94
  A 2.91 2.90 73.8 0 0 313.11 493.58
  C 313.33 483.16 313.87 471.24 311.67 461.42
  C 307.62 443.30 295.31 427.35 277.62 420.51
  C 264.73 415.53 243.58 411.12 236.61 426.70
  Q 233.92 432.70 232.97 438.39
  A 0.87 0.87 0.0 0 0 233.59 439.37
  L 258.38 446.25
  Q 258.91 446.40 259.15 445.91
  Q 261.85 440.43 268.26 439.39
  C 277.46 437.90 285.52 445.56 285.56 454.95
  Q 285.61 465.29 285.50 476.58
  Q 285.36 491.58 273.66 499.61
  Q 259.09 509.61 240.77 521.45
  Q 232.70 526.66 226.16 523.00
  Q 222.30 520.83 220.72 516.23
  C 218.74 510.41 220.43 504.48 225.65 500.99
  Q 240.81 490.84 256.78 480.20
  C 259.03 478.70 258.89 475.01 258.51 472.55
  Q 258.43 472.04 257.92 472.00
  Q 256.70 471.90 255.51 471.55
  Q 238.04 466.43 220.46 461.61
  A 1.08 1.08 0.0 0 0 219.57 461.76
  L 132.38 520.58
  A 0.43 0.43 0.0 0 0 132.50 521.35
  Q 199.79 541.25 252.32 557.34
  Q 304.06 573.18 355.81 589.04
  Q 436.92 613.90 520.71 639.56
  Q 529.94 642.39 538.04 644.49
  C 545.39 646.39 550.61 648.90 552.38 656.93
  Q 553.58 662.38 549.78 667.04
  Q 544.85 673.09 536.98 670.72
  Q 427.42 637.74 302.24 599.30
  Q 215.14 572.54 125.41 545.72
  A 0.47 0.46 8.4 0 0 124.81 546.16
  L 124.78 689.37
  A 0.87 0.85 -81.2 0 0 125.37 690.19
  Z
  M 608.47 521.55
  C 609.32 516.21 612.94 512.64 618.25 511.55
  A 0.99 0.97 -89.9 0 0 619.01 510.78
  C 619.53 508.23 620.33 502.85 617.73 501.20
  C 605.55 493.46 597.87 480.86 595.04 467.00
  C 591.77 450.99 591.98 433.41 593.83 416.64
  Q 595.91 397.65 602.01 379.09
  Q 605.16 369.51 608.36 363.00
  Q 611.31 357.03 616.26 354.59
  C 623.54 351.00 633.09 354.60 636.27 361.95
  C 637.97 365.86 637.77 369.35 636.00 373.24
  C 622.82 402.05 618.10 433.56 622.86 463.95
  Q 624.28 473.02 628.78 482.21
  C 631.33 487.43 635.43 491.49 639.58 495.48
  Q 642.03 497.83 642.40 501.48
  Q 643.71 514.33 641.54 523.47
  C 639.87 530.51 639.29 537.21 639.25 544.37
  Q 639.16 558.17 639.31 572.50
  A 1.22 1.21 6.9 0 0 640.23 573.66
  L 647.97 575.57
  Q 649.03 575.83 649.03 574.74
  Q 648.93 528.33 648.96 484.45
  C 648.96 477.87 648.60 471.46 650.11 465.28
  C 653.48 451.44 663.52 443.36 675.81 437.41
  Q 677.10 436.79 677.50 435.33
  Q 681.94 419.20 690.27 404.79
  C 699.58 388.68 713.24 378.26 732.94 383.15
  Q 741.95 385.39 767.39 392.62
  Q 779.90 396.18 783.77 398.69
  Q 792.88 404.61 795.77 414.83
  Q 797.57 421.20 797.31 433.29
  Q 796.98 448.07 797.18 465.36
  Q 797.20 466.98 798.54 466.06
  L 830.10 444.48
  A 2.81 2.78 72.9 0 0 831.31 442.17
  Q 831.09 382.47 831.20 324.14
  Q 831.23 313.58 823.86 307.63
  Q 820.49 304.91 812.65 302.65
  Q 782.90 294.05 750.95 284.08
  A 0.62 0.61 -81.6 0 0 750.16 284.67
  C 750.16 291.83 748.92 299.42 754.11 305.35
  C 758.41 310.27 764.54 315.48 766.96 321.46
  C 769.09 326.71 768.45 333.23 763.71 336.75
  C 760.28 339.31 756.24 339.32 752.69 336.97
  Q 741.74 329.76 727.39 333.62
  C 711.02 338.02 697.07 351.22 688.01 365.51
  Q 680.30 377.68 675.59 393.52
  Q 673.68 399.96 671.95 406.54
  Q 669.42 416.14 661.34 418.37
  C 653.86 420.42 646.19 416.56 643.71 409.15
  C 642.34 405.04 643.35 401.04 644.42 397.04
  Q 647.48 385.58 652.09 374.35
  Q 661.95 350.33 681.26 331.96
  C 694.21 319.63 710.24 310.46 728.24 310.47
  Q 729.09 310.47 728.71 309.70
  Q 723.44 299.04 723.29 287.75
  Q 723.21 281.76 723.18 275.78
  Q 723.18 275.69 723.10 275.67
  L 623.97 245.04
  Q 623.36 244.85 623.31 245.49
  C 623.09 248.50 622.48 253.55 624.74 255.96
  Q 629.74 261.30 635.82 266.67
  Q 638.41 268.97 641.57 269.60
  C 649.87 271.25 657.46 274.40 663.72 280.29
  Q 672.86 288.89 677.05 300.12
  Q 680.22 308.60 673.88 314.83
  Q 663.53 325.00 652.62 336.66
  C 648.25 341.34 642.48 344.70 635.88 342.31
  Q 626.93 339.06 625.72 329.72
  C 625.04 324.53 628.44 319.92 631.96 316.40
  Q 639.25 309.12 646.67 301.90
  Q 647.24 301.34 647.79 300.69
  Q 648.60 299.74 647.69 298.89
  C 637.45 289.31 623.31 292.75 613.50 300.55
  Q 599.50 311.70 590.19 329.08
  C 573.47 360.27 567.43 398.51 570.44 434.13
  Q 571.82 450.48 577.41 463.27
  Q 579.97 469.13 584.90 473.54
  C 586.41 474.89 587.88 476.88 587.97 478.98
  Q 588.26 486.38 588.29 494.81
  Q 588.32 501.31 587.56 505.05
  C 586.11 512.14 578.55 517.69 571.77 519.12
  C 565.67 520.40 556.39 516.80 550.25 514.71
  A 0.36 0.35 9.5 0 0 549.78 515.04
  L 549.77 528.72
  Q 549.77 529.46 550.47 529.66
  Q 578.61 537.63 607.68 545.62
  Q 609.87 546.22 612.43 546.78
  Q 613.07 546.92 613.09 546.26
  C 613.19 542.64 613.53 538.22 611.30 535.24
  Q 607.18 529.75 608.47 521.55
  Z
  M 730.83 591.79
  C 712.92 597.97 692.01 589.24 687.87 569.76
  Q 686.84 564.92 686.93 558.09
  Q 687.02 549.95 687.38 546.33
  Q 688.80 532.09 702.15 524.30
  C 705.17 522.54 709.27 521.53 712.72 520.58
  C 717.04 519.38 720.47 517.42 724.11 514.92
  Q 747.48 498.89 771.58 482.27
  A 2.18 2.18 0.0 0 0 772.53 480.47
  Q 772.45 455.90 772.57 430.41
  C 772.62 418.86 762.42 415.15 752.93 418.70
  Q 749.46 419.99 744.98 422.47
  Q 710.46 441.53 685.85 458.60
  C 679.11 463.27 674.91 468.13 674.39 476.44
  Q 674.00 482.86 674.00 492.49
  C 674.00 548.46 673.83 605.72 674.27 663.21
  A 0.17 0.17 0.0 0 0 674.54 663.35
  Q 677.90 661.11 681.00 658.96
  Q 726.73 627.21 771.31 596.48
  C 794.75 580.33 817.96 563.86 841.68 547.41
  Q 846.71 543.92 851.81 540.69
  A 1.42 1.41 74.3 0 0 852.47 539.51
  L 852.52 510.24
  A 0.27 0.27 0.0 0 0 852.11 510.01
  Q 849.60 511.52 847.63 512.86
  Q 810.80 537.87 771.33 564.86
  Q 757.44 574.37 744.57 583.68
  Q 735.68 590.12 730.83 591.79
  Z
  M 738.20 535.23
  C 731.92 539.48 726.95 543.21 719.26 544.33
  Q 711.31 545.49 710.88 552.78
  Q 710.57 558.06 711.12 563.05
  C 711.63 567.74 717.25 569.77 721.28 569.61
  C 725.94 569.43 730.30 566.34 733.64 563.02
  Q 737.71 558.98 746.30 553.28
  C 780.79 530.37 820.61 502.87 858.13 478.08
  C 861.56 475.81 865.08 473.95 868.57 471.85
  Q 872.79 469.30 871.93 464.04
  C 871.16 459.38 867.76 455.93 862.97 455.73
  C 857.15 455.50 853.02 458.09 848.42 461.16
  Q 791.59 499.19 738.20 535.23
  Z
  M 680.95 686.92
  Q 665.51 693.90 654.29 681.49
  Q 653.97 681.13 653.79 681.58
  C 649.57 692.23 646.30 705.09 646.29 716.75
  Q 646.21 785.38 646.22 855.48
  A 0.41 0.41 0.0 0 0 646.87 855.82
  Q 651.40 852.75 655.95 849.46
  Q 703.14 815.40 749.71 783.12
  Q 810.67 740.87 871.70 697.93
  A 2.58 2.57 -17.7 0 0 872.79 695.83
  L 872.81 554.78
  Q 872.81 554.51 872.59 554.65
  Q 866.80 558.27 860.90 562.39
  Q 793.13 609.71 723.79 658.02
  Q 706.12 670.33 689.60 681.80
  Q 684.58 685.29 680.95 686.92
  Z"
/>
<path fill="#f1f2ed" d="
  M 387.03 173.55
  L 406.71 179.68
  Q 407.26 179.85 407.25 180.42
  C 407.25 185.27 406.97 190.34 407.74 195.06
  Q 409.40 205.19 415.17 213.89
  Q 415.48 214.35 414.92 214.35
  Q 401.41 214.42 390.38 222.14
  Q 389.68 222.63 389.64 221.78
  C 389.56 220.27 389.78 218.81 389.61 217.28
  Q 388.91 210.78 388.02 204.68
  C 386.53 194.49 386.66 183.91 386.87 173.67
  A 0.13 0.12 -81.4 0 1 387.03 173.55
  Z"
/>
<path fill="#f1f2ed" d="
  M 573.25 285.89
  C 577.19 283.14 578.47 278.44 577.91 273.71
  C 576.79 264.19 572.17 255.76 564.42 250.07
  C 553.22 241.86 536.10 241.80 522.89 245.48
  A 0.80 0.80 0.0 0 1 522.03 245.19
  Q 512.46 232.09 496.96 228.57
  Q 480.03 224.72 463.78 230.61
  Q 461.28 231.52 458.70 232.46
  Q 458.09 232.68 458.00 232.04
  Q 457.23 226.17 452.88 221.74
  C 448.37 217.14 443.51 213.00 439.39 207.80
  C 436.75 204.49 434.76 201.64 434.43 197.20
  Q 434.08 192.53 434.39 187.70
  Q 434.43 187.11 434.99 187.25
  Q 437.17 187.76 439.28 188.40
  Q 516.84 212.07 595.37 236.33
  Q 595.97 236.51 595.96 237.14
  Q 595.90 240.18 595.94 243.29
  Q 596.18 261.40 607.93 274.91
  A 0.41 0.41 0.0 0 1 607.78 275.56
  C 586.36 284.67 570.79 305.02 560.37 325.82
  A 0.78 0.77 -68.6 0 1 559.46 326.22
  L 540.20 320.64
  A 0.40 0.40 0.0 0 1 539.97 320.05
  Q 548.67 305.35 560.36 294.83
  C 564.33 291.24 568.96 288.89 573.25 285.89
  Z"
/>
<path fill="#f1f2ed" d="
  M 267.60 235.01
  C 275.71 217.95 290.52 198.03 310.20 194.54
  C 320.29 192.75 329.09 196.55 335.48 204.62
  Q 335.78 205.00 335.35 205.24
  C 318.52 214.76 307.42 230.41 299.38 247.52
  Q 299.09 248.14 298.44 247.91
  Q 293.01 246.03 287.95 245.08
  Q 281.53 243.86 277.93 250.42
  C 274.68 256.34 275.37 265.47 283.08 267.83
  Q 286.70 268.93 290.41 269.14
  Q 291.93 269.22 291.50 270.68
  Q 286.88 286.37 284.83 302.37
  A 0.79 0.78 -77.6 0 1 283.82 303.02
  Q 279.33 301.62 274.45 301.07
  C 266.22 300.15 262.74 309.27 264.40 316.02
  C 266.44 324.35 275.63 325.14 282.51 325.75
  Q 283.13 325.81 283.10 326.42
  Q 282.58 338.05 283.00 348.36
  A 0.64 0.64 0.0 0 1 282.18 349.00
  C 278.16 347.76 271.64 346.14 268.04 348.89
  Q 263.01 352.75 263.47 359.74
  C 264.14 369.86 274.38 371.92 282.48 371.76
  Q 283.19 371.74 283.51 372.37
  C 287.30 379.65 290.94 382.58 299.00 384.65
  C 306.17 386.49 313.55 388.08 320.29 389.98
  Q 331.55 393.15 343.78 396.38
  A 0.64 0.63 7.9 0 1 344.25 396.99
  L 344.28 474.97
  A 2.12 2.12 0.0 0 1 343.08 476.88
  Q 337.96 479.34 333.39 482.85
  A 0.36 0.36 0.0 0 1 332.82 482.55
  Q 333.12 474.73 332.92 467.00
  C 332.57 453.92 327.71 439.40 320.54 428.64
  Q 307.49 409.07 284.15 399.86
  C 272.30 395.18 259.06 392.21 246.14 390.69
  Q 245.50 390.61 245.64 389.97
  C 248.46 377.65 250.88 365.77 251.20 352.94
  Q 251.66 334.53 251.43 311.22
  Q 251.32 299.88 252.13 290.83
  Q 254.72 262.10 267.60 235.01
  Z"
/>
<path fill="#f1f2ed" d="
  M 125.37 690.19
  A 0.87 0.85 -81.2 0 1 124.78 689.37
  L 124.81 546.16
  A 0.47 0.46 8.4 0 1 125.41 545.72
  Q 215.14 572.54 302.24 599.30
  Q 427.42 637.74 536.98 670.72
  Q 544.85 673.09 549.78 667.04
  Q 553.58 662.38 552.38 656.93
  C 550.61 648.90 545.39 646.39 538.04 644.49
  Q 529.94 642.39 520.71 639.56
  Q 436.92 613.90 355.81 589.04
  Q 304.06 573.18 252.32 557.34
  Q 199.79 541.25 132.50 521.35
  A 0.43 0.43 0.0 0 1 132.38 520.58
  L 219.57 461.76
  A 1.08 1.08 0.0 0 1 220.46 461.61
  Q 238.04 466.43 255.51 471.55
  Q 256.70 471.90 257.92 472.00
  Q 258.43 472.04 258.51 472.55
  C 258.89 475.01 259.03 478.70 256.78 480.20
  Q 240.81 490.84 225.65 500.99
  C 220.43 504.48 218.74 510.41 220.72 516.23
  Q 222.30 520.83 226.16 523.00
  Q 232.70 526.66 240.77 521.45
  Q 259.09 509.61 273.66 499.61
  Q 285.36 491.58 285.50 476.58
  Q 285.61 465.29 285.56 454.95
  C 285.52 445.56 277.46 437.90 268.26 439.39
  Q 261.85 440.43 259.15 445.91
  Q 258.91 446.40 258.38 446.25
  L 233.59 439.37
  A 0.87 0.87 0.0 0 1 232.97 438.39
  Q 233.92 432.70 236.61 426.70
  C 243.58 411.12 264.73 415.53 277.62 420.51
  C 295.31 427.35 307.62 443.30 311.67 461.42
  C 313.87 471.24 313.33 483.16 313.11 493.58
  A 2.91 2.90 73.8 0 1 311.82 495.94
  Q 298.60 504.81 282.80 514.87
  Q 279.25 517.14 277.24 519.71
  C 273.71 524.26 274.94 531.88 278.72 536.20
  C 284.50 542.80 292.58 539.64 298.54 535.67
  Q 315.02 524.69 336.08 510.87
  Q 345.91 504.41 354.44 499.57
  Q 360.78 495.97 363.35 493.00
  Q 371.11 484.01 371.07 473.24
  Q 370.91 430.75 371.14 389.13
  C 371.17 384.95 369.64 379.76 367.24 376.31
  Q 361.45 368.00 350.89 367.69
  C 346.86 367.58 343.29 369.25 339.32 368.14
  Q 325.89 364.41 311.67 360.60
  A 0.95 0.94 6.3 0 1 310.97 359.73
  Q 310.15 341.47 310.91 323.34
  Q 312.22 291.80 323.17 262.79
  C 328.08 249.80 336.33 235.31 348.11 227.45
  C 357.82 220.97 369.56 221.73 378.41 229.68
  A 0.43 0.42 -46.3 0 1 378.42 230.30
  Q 363.48 244.79 355.34 263.36
  A 0.89 0.89 0.0 0 1 354.21 263.84
  Q 349.46 262.07 343.72 260.92
  Q 339.92 260.15 336.97 262.48
  Q 331.18 267.05 332.00 274.53
  C 332.91 282.83 339.57 284.56 346.56 285.26
  Q 347.62 285.37 347.35 286.39
  Q 343.37 301.51 341.79 317.63
  Q 341.73 318.30 341.11 318.04
  C 336.85 316.24 328.56 313.95 324.64 317.72
  Q 320.48 321.72 320.87 327.70
  C 321.52 337.59 330.62 339.91 338.79 339.50
  Q 339.58 339.46 339.85 340.21
  C 342.76 348.54 350.32 353.66 359.18 350.86
  C 366.92 348.42 368.97 341.77 369.11 334.28
  Q 369.45 316.05 372.52 300.50
  Q 375.91 283.38 384.15 267.87
  C 391.15 254.70 401.76 241.34 416.18 236.93
  Q 430.00 232.70 440.38 242.83
  A 0.51 0.51 0.0 0 1 440.36 243.57
  C 429.11 253.54 419.90 265.32 413.44 278.75
  Q 413.01 279.66 412.08 279.26
  Q 407.18 277.13 401.64 276.25
  C 388.23 274.14 384.73 296.89 398.71 299.37
  Q 401.48 299.86 404.33 300.22
  A 0.62 0.62 0.0 0 1 404.85 301.02
  C 401.25 312.57 398.43 323.97 396.67 336.14
  Q 392.58 364.43 393.87 393.91
  C 394.25 402.62 395.38 411.94 397.81 420.29
  Q 401.19 431.90 409.23 439.84
  C 411.33 441.91 410.58 445.88 409.96 448.40
  Q 409.81 448.99 409.22 448.94
  C 401.59 448.28 397.29 453.34 397.12 460.53
  Q 396.89 470.16 397.09 480.00
  Q 397.14 482.50 397.64 484.75
  C 398.69 489.50 403.57 493.56 402.78 498.53
  C 401.61 505.97 398.43 514.64 391.93 518.97
  A 0.95 0.94 -46.0 0 1 390.92 518.99
  C 383.31 514.42 376.21 511.66 367.79 517.05
  Q 352.63 526.77 337.15 536.74
  Q 331.45 540.42 331.13 546.68
  C 330.52 558.84 341.71 564.75 351.95 558.25
  Q 361.61 552.11 373.76 543.85
  Q 377.57 541.27 381.12 542.49
  Q 385.84 544.12 390.40 545.77
  C 399.61 549.12 408.96 542.90 414.24 535.59
  C 420.51 526.93 426.90 513.01 426.66 501.63
  C 426.45 491.78 425.93 480.20 428.53 471.25
  Q 430.10 465.83 431.75 460.01
  Q 432.44 457.60 432.38 449.24
  C 432.33 443.42 431.85 439.05 429.51 433.56
  C 420.77 413.03 420.80 389.64 421.60 367.61
  Q 422.57 340.85 428.78 316.75
  C 433.84 297.12 442.39 279.17 456.49 264.59
  C 467.71 252.98 484.21 245.19 498.71 257.25
  Q 499.21 257.67 498.72 258.09
  C 490.39 265.31 483.10 273.12 477.11 283.03
  Q 471.03 293.10 466.41 303.33
  C 464.35 307.89 462.09 313.91 463.74 318.81
  C 466.63 327.37 477.78 331.77 485.48 326.40
  Q 489.53 323.58 491.63 318.37
  Q 495.52 308.73 500.12 299.99
  C 507.95 285.16 524.51 264.78 543.54 266.89
  Q 546.61 267.23 549.34 268.79
  Q 549.69 268.99 549.34 269.18
  Q 537.05 276.21 527.66 287.43
  C 513.66 304.17 504.73 323.99 498.59 344.63
  Q 495.98 353.41 501.14 359.49
  C 505.62 364.78 513.07 366.17 519.21 363.11
  C 526.28 359.57 528.47 350.78 530.79 343.77
  A 0.72 0.72 0.0 0 1 531.68 343.31
  L 550.83 348.88
  A 0.88 0.87 -73.9 0 1 551.43 349.97
  Q 537.93 395.87 542.70 440.67
  Q 544.60 458.51 553.25 471.51
  Q 557.06 477.23 563.62 481.91
  Q 564.93 482.85 564.87 484.55
  Q 564.75 488.80 564.43 492.62
  A 0.68 0.67 10.3 0 1 563.57 493.21
  L 550.16 489.35
  A 0.62 0.62 0.0 0 1 549.71 488.74
  Q 549.86 481.19 549.65 473.93
  C 549.53 470.11 547.85 466.92 544.84 464.51
  C 535.40 456.95 529.48 447.70 525.63 435.72
  C 521.67 423.40 521.54 410.84 522.21 397.83
  C 522.49 392.50 521.62 388.10 518.50 384.39
  C 514.52 379.67 506.72 377.99 500.96 380.31
  C 493.19 383.44 491.45 390.25 491.16 397.93
  Q 490.65 411.14 491.86 421.43
  C 493.65 436.77 500.50 451.51 512.25 461.78
  Q 517.82 466.65 524.27 470.70
  Q 525.62 471.54 525.68 473.12
  Q 525.88 477.68 525.67 482.61
  Q 525.64 483.22 525.06 483.02
  Q 519.55 481.04 514.37 480.25
  C 503.95 478.64 498.59 488.36 501.74 497.33
  Q 503.43 502.11 508.20 503.59
  Q 516.08 506.04 525.20 507.86
  Q 526.02 508.02 526.01 508.85
  L 525.83 528.72
  Q 525.82 529.61 525.08 530.10
  Q 501.75 545.36 478.25 561.00
  C 472.83 564.60 467.06 567.91 461.98 571.78
  C 452.62 578.93 457.53 595.04 469.74 594.62
  C 474.09 594.48 478.95 591.28 482.59 588.84
  Q 503.07 575.16 527.13 559.38
  Q 531.75 556.35 536.64 553.77
  A 5.69 5.68 38.7 0 1 540.78 553.32
  L 552.78 556.61
  A 0.69 0.69 0.0 0 1 553.28 557.26
  Q 553.31 562.95 551.95 567.81
  C 551.19 570.52 548.93 572.37 546.67 573.87
  Q 531.74 583.73 518.79 592.39
  C 514.94 594.96 512.43 598.36 512.66 603.30
  C 513.05 611.57 519.98 617.60 528.17 615.87
  Q 531.22 615.22 535.42 612.41
  Q 547.99 603.97 560.12 596.13
  Q 563.53 593.92 566.92 591.08
  C 574.83 584.46 578.89 574.29 578.50 564.08
  A 0.69 0.69 0.0 0 1 579.40 563.40
  Q 596.48 569.04 612.70 573.17
  Q 613.33 573.33 613.31 573.97
  C 613.03 582.62 611.72 590.87 620.32 596.12
  Q 622.52 597.47 625.23 598.43
  A 0.34 0.34 0.0 0 1 625.25 599.06
  Q 620.72 600.99 617.04 603.26
  Q 608.11 608.77 597.77 615.77
  A 1.63 1.62 51.2 0 1 595.68 615.54
  Q 594.14 613.92 592.08 613.10
  Q 582.28 609.23 569.03 605.63
  Q 564.87 604.49 561.10 604.25
  C 557.43 604.02 552.81 605.99 550.63 608.97
  C 545.59 615.88 549.16 625.90 557.50 628.10
  Q 566.95 630.59 576.59 633.50
  A 0.56 0.56 0.0 0 1 576.88 634.36
  Q 563.61 652.37 567.88 674.72
  C 568.91 680.12 573.38 683.91 579.24 683.37
  Q 587.04 682.65 589.96 674.94
  C 591.31 671.39 590.58 667.00 590.77 663.17
  C 591.09 656.90 595.46 650.94 599.85 646.45
  Q 609.37 636.72 619.91 629.21
  C 625.49 625.24 632.49 620.35 639.37 620.28
  Q 643.67 620.23 648.39 621.30
  Q 649.01 621.44 649.04 622.08
  Q 649.36 631.48 648.98 639.80
  Q 648.90 641.60 647.41 643.28
  Q 642.50 648.82 638.83 655.80
  C 632.02 668.78 626.03 683.48 623.24 698.34
  C 621.76 706.19 622.05 714.82 622.03 723.25
  Q 621.84 784.42 622.21 845.06
  Q 622.21 845.76 621.54 845.55
  Q 613.61 843.06 605.62 840.53
  Q 509.06 809.96 394.99 774.21
  Q 258.24 731.35 125.37 690.19
  Z
  M 465.69 465.16
  C 464.59 465.41 463.41 465.13 462.29 465.32
  C 455.99 466.38 453.31 471.39 453.10 477.31
  Q 452.77 486.52 452.93 495.53
  C 452.99 498.42 453.36 501.39 454.87 503.92
  C 456.27 506.27 458.46 508.49 458.50 511.35
  C 458.54 513.76 458.51 517.24 456.20 518.70
  C 438.11 530.14 420.96 542.01 402.65 553.34
  C 395.66 557.66 392.94 563.65 396.31 571.61
  C 398.84 577.61 405.41 580.20 411.46 577.82
  C 413.86 576.88 416.33 575.62 418.46 574.18
  Q 441.32 558.74 467.26 542.17
  Q 475.16 537.12 477.65 533.71
  Q 482.37 527.22 482.52 518.51
  Q 482.66 510.21 482.67 501.93
  C 482.67 497.24 483.43 492.63 484.67 488.11
  C 486.11 482.88 488.57 477.17 489.21 471.98
  Q 490.43 462.11 488.86 452.79
  C 488.61 451.33 487.61 448.99 486.87 447.68
  Q 479.87 435.19 478.06 423.90
  Q 473.29 394.07 479.70 360.10
  Q 481.84 348.74 472.63 342.73
  Q 465.17 337.86 457.31 341.87
  Q 455.91 342.59 454.44 343.15
  Q 453.93 343.34 453.41 343.13
  Q 449.82 341.65 446.35 341.02
  C 432.80 338.57 428.16 358.64 439.60 363.86
  Q 443.52 365.65 448.48 365.88
  Q 449.15 365.91 449.07 366.57
  Q 446.81 385.09 447.58 405.37
  Q 448.07 418.37 451.65 430.10
  C 454.34 438.93 459.29 446.81 465.53 453.80
  C 468.15 456.73 466.80 460.93 466.36 464.43
  Q 466.28 465.02 465.69 465.16
  Z
  M 169.5143 606.4583
  A 13.78 11.47 38.5 0 0 165.8702 588.9035
  A 13.78 11.47 38.5 0 0 147.9457 589.3017
  A 13.78 11.47 38.5 0 0 151.5898 606.8565
  A 13.78 11.47 38.5 0 0 169.5143 606.4583
  Z
  M 195.7929 682.9329
  A 27.64 26.58 91.3 0 0 222.9932 655.9030
  A 27.64 26.58 91.3 0 0 197.0471 627.6671
  A 27.64 26.58 91.3 0 0 169.8468 654.6970
  A 27.64 26.58 91.3 0 0 195.7929 682.9329
  Z
  M 315.19 641.93
  C 313.24 647.03 317.34 648.64 321.19 649.94
  Q 329.93 652.91 340.65 656.14
  C 343.40 656.97 345.69 657.50 347.52 654.74
  Q 349.32 652.03 351.15 649.27
  C 355.22 643.12 353.46 638.54 346.31 636.82
  C 338.42 634.92 330.50 631.87 322.33 630.86
  A 2.81 2.80 17.3 0 0 319.50 632.34
  Q 317.10 636.93 315.19 641.93
  Z
  M 503.86 682.35
  C 465.25 671.12 426.50 658.84 387.80 647.11
  Q 383.08 645.67 379.00 644.87
  A 2.99 2.96 22.9 0 0 376.01 646.07
  Q 372.40 651.17 369.44 656.58
  Q 365.57 663.66 369.85 667.69
  Q 371.47 669.22 377.47 671.00
  Q 431.55 687.04 492.49 705.66
  C 496.93 707.02 500.67 708.07 503.81 703.75
  Q 506.97 699.41 510.16 694.16
  Q 511.17 692.50 511.43 690.77
  C 512.23 685.60 507.89 683.52 503.86 682.35
  Z
  M 283.98 665.13
  Q 279.06 663.58 274.51 662.35
  C 270.21 661.18 265.82 663.79 262.98 666.98
  Q 257.02 673.68 251.17 681.71
  Q 247.88 686.23 249.07 691.44
  C 250.33 696.94 252.48 702.13 258.49 703.87
  Q 270.36 707.30 281.91 711.21
  Q 286.39 712.73 289.08 712.62
  C 293.27 712.46 296.73 709.84 299.26 706.49
  Q 306.36 697.11 312.08 688.37
  Q 315.04 683.84 312.94 678.39
  Q 310.89 673.11 305.18 671.48
  Q 294.00 668.28 283.98 665.13
  Z
  M 376.69 707.49
  C 377.65 706.05 378.65 704.02 378.49 702.26
  Q 377.68 693.54 369.30 691.08
  Q 354.84 686.83 339.99 682.20
  Q 332.40 679.84 327.35 685.77
  Q 320.75 693.52 314.45 703.40
  C 312.48 706.49 312.43 709.50 313.39 712.97
  C 314.77 717.97 316.37 721.85 321.97 723.46
  Q 333.74 726.83 344.80 730.50
  C 352.03 732.90 357.83 733.42 362.79 726.97
  Q 369.21 718.62 376.69 707.49
  Z
  M 586.58 707.70
  C 570.30 703.13 553.79 697.77 537.19 693.03
  C 533.72 692.04 532.07 693.88 530.49 696.61
  Q 528.44 700.18 526.19 703.83
  C 523.71 707.85 521.91 713.30 526.39 716.51
  Q 527.84 717.54 532.06 718.72
  Q 554.16 724.93 575.99 732.04
  C 578.55 732.88 583.34 734.32 585.09 731.85
  Q 588.72 726.70 591.98 721.34
  C 595.51 715.52 593.42 709.62 586.58 707.70
  Z
  M 458.74 718.02
  Q 437.20 711.43 404.45 701.44
  C 400.73 700.30 397.34 700.56 394.40 703.25
  Q 387.21 709.83 380.29 719.96
  C 378.63 722.38 376.87 724.59 376.37 727.50
  Q 375.54 732.29 378.34 738.05
  C 379.59 740.64 381.89 742.29 384.58 743.08
  Q 409.76 750.49 435.69 758.98
  C 441.88 761.01 447.14 757.07 450.73 752.25
  Q 457.55 743.11 463.24 734.75
  Q 466.09 730.56 464.90 725.79
  C 464.05 722.36 462.32 719.11 458.74 718.02
  Z
  M 501.3001 735.7782
  A 7.96 6.52 13.5 0 0 495.0821 727.5801
  A 7.96 6.52 13.5 0 0 485.8199 732.0618
  A 7.96 6.52 13.5 0 0 492.0379 740.2599
  A 7.96 6.52 13.5 0 0 501.3001 735.7782
  Z
  M 521.33 763.69
  Q 519.21 763.08 520.71 761.46
  Q 524.22 757.66 527.53 753.12
  C 529.01 751.09 529.65 748.99 529.18 746.55
  C 527.47 737.72 517.13 734.30 510.96 741.11
  Q 504.98 747.71 498.95 755.53
  A 2.22 2.21 -62.5 0 1 496.55 756.29
  Q 487.40 753.43 477.20 750.35
  C 472.06 748.80 466.93 749.21 465.04 754.95
  C 464.11 757.78 464.91 761.19 465.79 763.99
  Q 467.46 769.30 472.91 770.98
  Q 517.49 784.72 559.99 797.99
  Q 566.90 800.15 571.91 793.69
  Q 578.24 785.53 585.17 775.85
  Q 589.55 769.73 587.31 763.77
  C 584.82 757.14 577.47 754.89 571.85 759.27
  Q 569.71 760.94 568.51 762.50
  Q 563.86 768.51 559.51 774.07
  A 2.15 2.14 28.2 0 1 557.14 774.78
  Q 539.13 768.81 521.33 763.69
  Z
  M 560.5791 754.3145
  A 7.83 6.40 16.2 0 0 554.8455 745.9841
  A 7.83 6.40 16.2 0 0 545.5409 749.9455
  A 7.83 6.40 16.2 0 0 551.2745 758.2759
  A 7.83 6.40 16.2 0 0 560.5791 754.3145
  Z"
/>
<path fill="#f1f2ed" d="
  M 618.25 511.55
  C 612.94 512.64 609.32 516.21 608.47 521.55
  Q 607.18 529.75 611.30 535.24
  C 613.53 538.22 613.19 542.64 613.09 546.26
  Q 613.07 546.92 612.43 546.78
  Q 609.87 546.22 607.68 545.62
  Q 578.61 537.63 550.47 529.66
  Q 549.77 529.46 549.77 528.72
  L 549.78 515.04
  A 0.36 0.35 9.5 0 1 550.25 514.71
  C 556.39 516.80 565.67 520.40 571.77 519.12
  C 578.55 517.69 586.11 512.14 587.56 505.05
  Q 588.32 501.31 588.29 494.81
  Q 588.26 486.38 587.97 478.98
  C 587.88 476.88 586.41 474.89 584.90 473.54
  Q 579.97 469.13 577.41 463.27
  Q 571.82 450.48 570.44 434.13
  C 567.43 398.51 573.47 360.27 590.19 329.08
  Q 599.50 311.70 613.50 300.55
  C 623.31 292.75 637.45 289.31 647.69 298.89
  Q 648.60 299.74 647.79 300.69
  Q 647.24 301.34 646.67 301.90
  Q 639.25 309.12 631.96 316.40
  C 628.44 319.92 625.04 324.53 625.72 329.72
  Q 626.93 339.06 635.88 342.31
  C 642.48 344.70 648.25 341.34 652.62 336.66
  Q 663.53 325.00 673.88 314.83
  Q 680.22 308.60 677.05 300.12
  Q 672.86 288.89 663.72 280.29
  C 657.46 274.40 649.87 271.25 641.57 269.60
  Q 638.41 268.97 635.82 266.67
  Q 629.74 261.30 624.74 255.96
  C 622.48 253.55 623.09 248.50 623.31 245.49
  Q 623.36 244.85 623.97 245.04
  L 723.10 275.67
  Q 723.18 275.69 723.18 275.78
  Q 723.21 281.76 723.29 287.75
  Q 723.44 299.04 728.71 309.70
  Q 729.09 310.47 728.24 310.47
  C 710.24 310.46 694.21 319.63 681.26 331.96
  Q 661.95 350.33 652.09 374.35
  Q 647.48 385.58 644.42 397.04
  C 643.35 401.04 642.34 405.04 643.71 409.15
  C 646.19 416.56 653.86 420.42 661.34 418.37
  Q 669.42 416.14 671.95 406.54
  Q 673.68 399.96 675.59 393.52
  Q 680.30 377.68 688.01 365.51
  C 697.07 351.22 711.02 338.02 727.39 333.62
  Q 741.74 329.76 752.69 336.97
  C 756.24 339.32 760.28 339.31 763.71 336.75
  C 768.45 333.23 769.09 326.71 766.96 321.46
  C 764.54 315.48 758.41 310.27 754.11 305.35
  C 748.92 299.42 750.16 291.83 750.16 284.67
  A 0.62 0.61 -81.6 0 1 750.95 284.08
  Q 782.90 294.05 812.65 302.65
  Q 820.49 304.91 823.86 307.63
  Q 831.23 313.58 831.20 324.14
  Q 831.09 382.47 831.31 442.17
  A 2.81 2.78 72.9 0 1 830.10 444.48
  L 798.54 466.06
  Q 797.20 466.98 797.18 465.36
  Q 796.98 448.07 797.31 433.29
  Q 797.57 421.20 795.77 414.83
  Q 792.88 404.61 783.77 398.69
  Q 779.90 396.18 767.39 392.62
  Q 741.95 385.39 732.94 383.15
  C 713.24 378.26 699.58 388.68 690.27 404.79
  Q 681.94 419.20 677.50 435.33
  Q 677.10 436.79 675.81 437.41
  C 663.52 443.36 653.48 451.44 650.11 465.28
  C 648.60 471.46 648.96 477.87 648.96 484.45
  Q 648.93 528.33 649.03 574.74
  Q 649.03 575.83 647.97 575.57
  L 640.23 573.66
  A 1.22 1.21 6.9 0 1 639.31 572.50
  Q 639.16 558.17 639.25 544.37
  C 639.29 537.21 639.87 530.51 641.54 523.47
  Q 643.71 514.33 642.40 501.48
  Q 642.03 497.83 639.58 495.48
  C 635.43 491.49 631.33 487.43 628.78 482.21
  Q 624.28 473.02 622.86 463.95
  C 618.10 433.56 622.82 402.05 636.00 373.24
  C 637.77 369.35 637.97 365.86 636.27 361.95
  C 633.09 354.60 623.54 351.00 616.26 354.59
  Q 611.31 357.03 608.36 363.00
  Q 605.16 369.51 602.01 379.09
  Q 595.91 397.65 593.83 416.64
  C 591.98 433.41 591.77 450.99 595.04 467.00
  C 597.87 480.86 605.55 493.46 617.73 501.20
  C 620.33 502.85 619.53 508.23 619.01 510.78
  A 0.99 0.97 -89.9 0 1 618.25 511.55
  Z
  M 815.94 394.16
  Q 822.29 390.80 822.71 384.23
  Q 823.16 377.22 822.97 370.36
  C 822.85 365.52 817.47 362.99 813.17 364.11
  Q 806.05 365.95 803.97 373.25
  Q 803.23 375.84 803.63 387.48
  C 803.90 395.43 809.22 397.70 815.94 394.16
  Z
  M 806.6819 420.2151
  A 12.85 9.13 119.4 0 0 820.9442 413.5020
  A 12.85 9.13 119.4 0 0 819.2981 397.8249
  A 12.85 9.13 119.4 0 0 805.0358 404.5380
  A 12.85 9.13 119.4 0 0 806.6819 420.2151
  Z
  M 813.36 449.54
  C 820.63 445.89 824.71 438.41 823.69 430.24
  C 823.13 425.77 818.30 424.13 814.38 424.98
  C 805.74 426.85 802.19 435.22 803.37 443.76
  C 804.09 448.97 808.44 452.02 813.36 449.54
  Z"
/>
<path fill="#203341" d="
  M 466.36 464.43
  C 466.80 460.93 468.15 456.73 465.53 453.80
  C 459.29 446.81 454.34 438.93 451.65 430.10
  Q 448.07 418.37 447.58 405.37
  Q 446.81 385.09 449.07 366.57
  Q 449.15 365.91 448.48 365.88
  Q 443.52 365.65 439.60 363.86
  C 428.16 358.64 432.80 338.57 446.35 341.02
  Q 449.82 341.65 453.41 343.13
  Q 453.93 343.34 454.44 343.15
  Q 455.91 342.59 457.31 341.87
  Q 465.17 337.86 472.63 342.73
  Q 481.84 348.74 479.70 360.10
  Q 473.29 394.07 478.06 423.90
  Q 479.87 435.19 486.87 447.68
  C 487.61 448.99 488.61 451.33 488.86 452.79
  Q 490.43 462.11 489.21 471.98
  C 488.57 477.17 486.11 482.88 484.67 488.11
  C 483.43 492.63 482.67 497.24 482.67 501.93
  Q 482.66 510.21 482.52 518.51
  Q 482.37 527.22 477.65 533.71
  Q 475.16 537.12 467.26 542.17
  Q 441.32 558.74 418.46 574.18
  C 416.33 575.62 413.86 576.88 411.46 577.82
  C 405.41 580.20 398.84 577.61 396.31 571.61
  C 392.94 563.65 395.66 557.66 402.65 553.34
  C 420.96 542.01 438.11 530.14 456.20 518.70
  C 458.51 517.24 458.54 513.76 458.50 511.35
  C 458.46 508.49 456.27 506.27 454.87 503.92
  C 453.36 501.39 452.99 498.42 452.93 495.53
  Q 452.77 486.52 453.10 477.31
  C 453.31 471.39 455.99 466.38 462.29 465.32
  C 463.41 465.13 464.59 465.41 465.69 465.16
  Q 466.28 465.02 466.36 464.43
  Z"
/>
<path fill="#203341" d="
  M 815.94 394.16
  C 809.22 397.70 803.90 395.43 803.63 387.48
  Q 803.23 375.84 803.97 373.25
  Q 806.05 365.95 813.17 364.11
  C 817.47 362.99 822.85 365.52 822.97 370.36
  Q 823.16 377.22 822.71 384.23
  Q 822.29 390.80 815.94 394.16
  Z"
/>
<ellipse fill="#203341" cx="0.00" cy="0.00" transform="translate(812.99,409.02) rotate(119.4)" rx="12.85" ry="9.13"/>
<path fill="#f1f2ed" d="
  M 687.87 569.76
  C 692.01 589.24 712.92 597.97 730.83 591.79
  Q 735.68 590.12 744.57 583.68
  Q 757.44 574.37 771.33 564.86
  Q 810.80 537.87 847.63 512.86
  Q 849.60 511.52 852.11 510.01
  A 0.27 0.27 0.0 0 1 852.52 510.24
  L 852.47 539.51
  A 1.42 1.41 74.3 0 1 851.81 540.69
  Q 846.71 543.92 841.68 547.41
  C 817.96 563.86 794.75 580.33 771.31 596.48
  Q 726.73 627.21 681.00 658.96
  Q 677.90 661.11 674.54 663.35
  A 0.17 0.17 0.0 0 1 674.27 663.21
  C 673.83 605.72 674.00 548.46 674.00 492.49
  Q 674.00 482.86 674.39 476.44
  C 674.91 468.13 679.11 463.27 685.85 458.60
  Q 710.46 441.53 744.98 422.47
  Q 749.46 419.99 752.93 418.70
  C 762.42 415.15 772.62 418.86 772.57 430.41
  Q 772.45 455.90 772.53 480.47
  A 2.18 2.18 0.0 0 1 771.58 482.27
  Q 747.48 498.89 724.11 514.92
  C 720.47 517.42 717.04 519.38 712.72 520.58
  C 709.27 521.53 705.17 522.54 702.15 524.30
  Q 688.80 532.09 687.38 546.33
  Q 687.02 549.95 686.93 558.09
  Q 686.84 564.92 687.87 569.76
  Z"
/>
<path fill="#203341" d="
  M 823.69 430.24
  C 824.71 438.41 820.63 445.89 813.36 449.54
  C 808.44 452.02 804.09 448.97 803.37 443.76
  C 802.19 435.22 805.74 426.85 814.38 424.98
  C 818.30 424.13 823.13 425.77 823.69 430.24
  Z"
/>
<path fill="#f1f2ed" d="
  M 719.26 544.33
  C 726.95 543.21 731.92 539.48 738.20 535.23
  Q 791.59 499.19 848.42 461.16
  C 853.02 458.09 857.15 455.50 862.97 455.73
  C 867.76 455.93 871.16 459.38 871.93 464.04
  Q 872.79 469.30 868.57 471.85
  C 865.08 473.95 861.56 475.81 858.13 478.08
  C 820.61 502.87 780.79 530.37 746.30 553.28
  Q 737.71 558.98 733.64 563.02
  C 730.30 566.34 725.94 569.43 721.28 569.61
  C 717.25 569.77 711.63 567.74 711.12 563.05
  Q 710.57 558.06 710.88 552.78
  Q 711.31 545.49 719.26 544.33
  Z"
/>
<path fill="#f1f2ed" d="
  M 680.95 686.92
  Q 684.58 685.29 689.60 681.80
  Q 706.12 670.33 723.79 658.02
  Q 793.13 609.71 860.90 562.39
  Q 866.80 558.27 872.59 554.65
  Q 872.81 554.51 872.81 554.78
  L 872.79 695.83
  A 2.58 2.57 -17.7 0 1 871.70 697.93
  Q 810.67 740.87 749.71 783.12
  Q 703.14 815.40 655.95 849.46
  Q 651.40 852.75 646.87 855.82
  A 0.41 0.41 0.0 0 1 646.22 855.48
  Q 646.21 785.38 646.29 716.75
  C 646.30 705.09 649.57 692.23 653.79 681.58
  Q 653.97 681.13 654.29 681.49
  Q 665.51 693.90 680.95 686.92
  Z
  M 775.29 733.67
  C 780.81 731.93 784.18 726.54 784.19 720.66
  Q 784.27 694.11 784.16 667.16
  Q 784.15 664.38 783.88 661.35
  C 783.20 653.75 774.46 651.72 768.91 655.36
  Q 763.80 658.71 763.72 665.53
  Q 763.42 694.26 763.54 722.97
  Q 763.55 726.15 764.42 728.68
  C 766.03 733.41 770.76 735.11 775.29 733.67
  Z
  M 735.06 763.48
  C 739.63 762.52 744.53 757.47 744.55 752.01
  Q 744.65 725.14 744.67 690.42
  C 744.67 685.43 742.83 680.84 737.33 680.11
  C 730.05 679.16 724.58 684.29 724.54 691.58
  Q 724.41 724.08 724.48 754.10
  C 724.50 760.43 728.50 764.87 735.06 763.48
  Z
  M 704.49 781.19
  Q 705.73 778.01 705.72 773.89
  Q 705.65 746.49 705.76 719.47
  C 705.77 715.41 704.74 710.85 700.70 709.13
  C 692.67 705.72 685.24 712.10 685.15 720.24
  Q 684.85 746.79 684.98 778.70
  C 685.04 791.69 700.58 791.26 704.49 781.19
  Z"
/>
<ellipse fill="#203341" cx="0.00" cy="0.00" transform="translate(158.73,597.88) rotate(38.5)" rx="13.78" ry="11.47"/>
<ellipse fill="#203341" cx="0.00" cy="0.00" transform="translate(196.42,655.30) rotate(91.3)" rx="27.64" ry="26.58"/>
<path fill="#203341" d="
  M 321.19 649.94
  C 317.34 648.64 313.24 647.03 315.19 641.93
  Q 317.10 636.93 319.50 632.34
  A 2.81 2.80 17.3 0 1 322.33 630.86
  C 330.50 631.87 338.42 634.92 346.31 636.82
  C 353.46 638.54 355.22 643.12 351.15 649.27
  Q 349.32 652.03 347.52 654.74
  C 345.69 657.50 343.40 656.97 340.65 656.14
  Q 329.93 652.91 321.19 649.94
  Z"
/>
<path fill="#203341" d="
  M 387.80 647.11
  C 426.50 658.84 465.25 671.12 503.86 682.35
  C 507.89 683.52 512.23 685.60 511.43 690.77
  Q 511.17 692.50 510.16 694.16
  Q 506.97 699.41 503.81 703.75
  C 500.67 708.07 496.93 707.02 492.49 705.66
  Q 431.55 687.04 377.47 671.00
  Q 371.47 669.22 369.85 667.69
  Q 365.57 663.66 369.44 656.58
  Q 372.40 651.17 376.01 646.07
  A 2.99 2.96 22.9 0 1 379.00 644.87
  Q 383.08 645.67 387.80 647.11
  Z"
/>
<path fill="#203341" d="
  M 784.19 720.66
  C 784.18 726.54 780.81 731.93 775.29 733.67
  C 770.76 735.11 766.03 733.41 764.42 728.68
  Q 763.55 726.15 763.54 722.97
  Q 763.42 694.26 763.72 665.53
  Q 763.80 658.71 768.91 655.36
  C 774.46 651.72 783.20 653.75 783.88 661.35
  Q 784.15 664.38 784.16 667.16
  Q 784.27 694.11 784.19 720.66
  Z"
/>
<path fill="#203341" d="
  M 283.98 665.13
  Q 294.00 668.28 305.18 671.48
  Q 310.89 673.11 312.94 678.39
  Q 315.04 683.84 312.08 688.37
  Q 306.36 697.11 299.26 706.49
  C 296.73 709.84 293.27 712.46 289.08 712.62
  Q 286.39 712.73 281.91 711.21
  Q 270.36 707.30 258.49 703.87
  C 252.48 702.13 250.33 696.94 249.07 691.44
  Q 247.88 686.23 251.17 681.71
  Q 257.02 673.68 262.98 666.98
  C 265.82 663.79 270.21 661.18 274.51 662.35
  Q 279.06 663.58 283.98 665.13
  Z
  M 279.8864 686.9444
  A 4.80 4.46 135.5 0 0 286.4361 686.7611
  A 4.80 4.46 135.5 0 0 286.7336 680.2156
  A 4.80 4.46 135.5 0 0 280.1839 680.3989
  A 4.80 4.46 135.5 0 0 279.8864 686.9444
  Z"
/>
<ellipse fill="#f1f2ed" cx="0.00" cy="0.00" transform="translate(283.31,683.58) rotate(135.5)" rx="4.80" ry="4.46"/>
<path fill="#203341" d="
  M 744.55 752.01
  C 744.53 757.47 739.63 762.52 735.06 763.48
  C 728.50 764.87 724.50 760.43 724.48 754.10
  Q 724.41 724.08 724.54 691.58
  C 724.58 684.29 730.05 679.16 737.33 680.11
  C 742.83 680.84 744.67 685.43 744.67 690.42
  Q 744.65 725.14 744.55 752.01
  Z"
/>
<path fill="#203341" d="
  M 378.49 702.26
  C 378.65 704.02 377.65 706.05 376.69 707.49
  Q 369.21 718.62 362.79 726.97
  C 357.83 733.42 352.03 732.90 344.80 730.50
  Q 333.74 726.83 321.97 723.46
  C 316.37 721.85 314.77 717.97 313.39 712.97
  C 312.43 709.50 312.48 706.49 314.45 703.40
  Q 320.75 693.52 327.35 685.77
  Q 332.40 679.84 339.99 682.20
  Q 354.84 686.83 369.30 691.08
  Q 377.68 693.54 378.49 702.26
  Z
  M 352.5924 701.4250
  A 4.87 4.57 -38.1 0 0 345.9401 700.8337
  A 4.87 4.57 -38.1 0 0 344.9276 707.4350
  A 4.87 4.57 -38.1 0 0 351.5799 708.0263
  A 4.87 4.57 -38.1 0 0 352.5924 701.4250
  Z"
/>
<path fill="#203341" d="
  M 537.19 693.03
  C 553.79 697.77 570.30 703.13 586.58 707.70
  C 593.42 709.62 595.51 715.52 591.98 721.34
  Q 588.72 726.70 585.09 731.85
  C 583.34 734.32 578.55 732.88 575.99 732.04
  Q 554.16 724.93 532.06 718.72
  Q 527.84 717.54 526.39 716.51
  C 521.91 713.30 523.71 707.85 526.19 703.83
  Q 528.44 700.18 530.49 696.61
  C 532.07 693.88 533.72 692.04 537.19 693.03
  Z"
/>
<ellipse fill="#f1f2ed" cx="0.00" cy="0.00" transform="translate(348.76,704.43) rotate(-38.1)" rx="4.87" ry="4.57"/>
<path fill="#203341" d="
  M 458.74 718.02
  C 462.32 719.11 464.05 722.36 464.90 725.79
  Q 466.09 730.56 463.24 734.75
  Q 457.55 743.11 450.73 752.25
  C 447.14 757.07 441.88 761.01 435.69 758.98
  Q 409.76 750.49 384.58 743.08
  C 381.89 742.29 379.59 740.64 378.34 738.05
  Q 375.54 732.29 376.37 727.50
  C 376.87 724.59 378.63 722.38 380.29 719.96
  Q 387.21 709.83 394.40 703.25
  C 397.34 700.56 400.73 700.30 404.45 701.44
  Q 437.20 711.43 458.74 718.02
  Z
  M 414.0013 715.0255
  A 4.02 3.73 -31.4 0 0 408.6266 713.9363
  A 4.02 3.73 -31.4 0 0 407.1387 719.2145
  A 4.02 3.73 -31.4 0 0 412.5134 720.3037
  A 4.02 3.73 -31.4 0 0 414.0013 715.0255
  Z
  M 429.47 722.66
  A 4.11 4.11 0.0 0 0 425.36 718.55
  A 4.11 4.11 0.0 0 0 421.25 722.66
  A 4.11 4.11 0.0 0 0 425.36 726.77
  A 4.11 4.11 0.0 0 0 429.47 722.66
  Z"
/>
<path fill="#203341" d="
  M 704.49 781.19
  C 700.58 791.26 685.04 791.69 684.98 778.70
  Q 684.85 746.79 685.15 720.24
  C 685.24 712.10 692.67 705.72 700.70 709.13
  C 704.74 710.85 705.77 715.41 705.76 719.47
  Q 705.65 746.49 705.72 773.89
  Q 705.73 778.01 704.49 781.19
  Z"
/>
<ellipse fill="#f1f2ed" cx="0.00" cy="0.00" transform="translate(410.57,717.12) rotate(-31.4)" rx="4.02" ry="3.73"/>
<circle fill="#f1f2ed" cx="425.36" cy="722.66" r="4.11"/>
<ellipse fill="#203341" cx="0.00" cy="0.00" transform="translate(493.56,733.92) rotate(13.5)" rx="7.96" ry="6.52"/>
<path fill="#d4d3cf" d="
  M 896.62 736.98
  L 896.87 777.77
  A 0.58 0.57 -7.5 0 1 896.43 778.34
  Q 895.79 778.50 895.87 778.28
  Q 896.04 777.82 895.56 777.87
  Q 893.76 778.04 891.95 777.93
  Q 890.16 777.83 888.56 778.40
  Q 885.57 779.48 883.20 779.56
  Q 878.73 779.72 874.08 779.61
  Q 873.25 779.59 872.71 779.21
  Q 871.92 778.65 871.28 777.90
  A 1.50 1.48 77.1 0 0 870.57 777.45
  Q 865.10 775.90 860.21 779.82
  Q 859.53 780.37 859.75 781.23
  C 861.50 787.88 860.23 791.33 854.57 794.96
  C 844.92 801.16 835.98 807.81 826.75 814.08
  C 821.24 817.83 815.65 822.10 810.13 825.99
  Q 779.90 847.33 749.74 868.76
  Q 738.99 876.40 728.11 884.24
  Q 722.86 888.03 715.93 892.68
  C 710.42 896.38 705.15 900.42 699.78 904.17
  Q 688.24 912.23 677.17 920.42
  C 674.20 922.61 670.96 924.43 668.11 926.71
  Q 655.47 936.83 641.75 943.00
  C 635.25 945.93 630.58 951.11 625.42 955.66
  C 619.90 960.53 612.45 964.18 605.08 961.86
  Q 590.70 957.35 584.08 954.38
  C 575.99 950.76 578.16 942.58 583.68 937.61
  A 0.91 0.91 0.0 0 0 583.35 936.07
  Q 574.35 933.22 565.74 930.41
  Q 519.99 915.49 487.56 905.05
  Q 482.52 903.42 477.16 901.72
  Q 439.18 889.71 401.67 877.58
  Q 397.80 876.33 393.63 874.99
  Q 369.12 867.10 345.26 859.52
  C 343.96 859.11 342.65 858.92 341.30 858.47
  Q 308.21 847.38 296.71 844.09
  Q 287.41 841.42 277.37 837.66
  Q 268.30 834.26 264.60 826.89
  Q 261.09 819.92 261.12 811.64
  Q 261.12 811.22 261.31 810.84
  L 262.38 808.74
  Q 517.69 889.54 598.90 915.62
  Q 611.32 919.61 619.50 920.03
  Q 632.33 920.69 641.71 916.25
  C 646.54 913.97 650.80 910.73 655.15 907.63
  Q 772.42 823.92 887.20 743.22
  Q 892.55 739.46 896.62 736.98
  Z"
/>
<path fill="#203341" d="
  M 521.33 763.69
  Q 539.13 768.81 557.14 774.78
  A 2.15 2.14 28.2 0 0 559.51 774.07
  Q 563.86 768.51 568.51 762.50
  Q 569.71 760.94 571.85 759.27
  C 577.47 754.89 584.82 757.14 587.31 763.77
  Q 589.55 769.73 585.17 775.85
  Q 578.24 785.53 571.91 793.69
  Q 566.90 800.15 559.99 797.99
  Q 517.49 784.72 472.91 770.98
  Q 467.46 769.30 465.79 763.99
  C 464.91 761.19 464.11 757.78 465.04 754.95
  C 466.93 749.21 472.06 748.80 477.20 750.35
  Q 487.40 753.43 496.55 756.29
  A 2.22 2.21 -62.5 0 0 498.95 755.53
  Q 504.98 747.71 510.96 741.11
  C 517.13 734.30 527.47 737.72 529.18 746.55
  C 529.65 748.99 529.01 751.09 527.53 753.12
  Q 524.22 757.66 520.71 761.46
  Q 519.21 763.08 521.33 763.69
  Z"
/>
<ellipse fill="#203341" cx="0.00" cy="0.00" transform="translate(553.06,752.13) rotate(16.2)" rx="7.83" ry="6.40"/>
<path fill="#d4d3cf" d="
  M 99.09 756.94
  L 142.77 770.69
  Q 142.40 770.67 142.18 770.74
  A 0.44 0.44 0.0 0 0 141.99 771.46
  L 143.11 772.61
  Q 143.44 772.95 143.48 773.42
  C 143.73 776.38 144.06 783.50 141.17 785.07
  Q 135.72 788.05 129.64 790.04
  Q 126.04 791.21 124.64 795.05
  C 123.65 797.77 121.64 799.81 118.60 800.00
  Q 112.63 800.38 106.08 797.14
  Q 99.22 793.75 98.98 786.25
  Q 98.77 779.54 99.09 756.94
  Z"
/>
</svg>
